Stretch Black Display Wide Cy Sc vv(-6.4-0.0)-(110.0-100.0)-0.0-0.0-(0.0-0.0).ufo
<glyph name="aie-cy.sc" format="1">
  <advance width="1998"/>
  <outline>
    <contour>
      <point x="846" y="145" type="line"/>
      <point x="681" y="124" type="line"/>
      <point x="681" y="0" type="line"/>
      <point x="1923" y="0" type="line"/>
      <point x="1996" y="332" type="line"/>
      <point x="1802" y="384" type="line"/>
      <point x="1671" y="155" type="line"/>
      <point x="1192" y="130" type="line"/>
      <point x="1192" y="583" type="line"/>
      <point x="1461" y="578" type="line"/>
      <point x="1494" y="426" type="line"/>
      <point x="1636" y="426" type="line"/>
      <point x="1636" y="877" type="line"/>
      <point x="1493" y="877" type="line"/>
      <point x="1459" y="738" type="line"/>
      <point x="1192" y="732" type="line"/>
      <point x="1192" y="1170" type="line"/>
      <point x="1621" y="1147" type="line"/>
      <point x="1695" y="969" type="line"/>
      <point x="1857" y="969" type="line"/>
      <point x="1825" y="1292" type="line"/>
      <point x="229" y="1292" type="line"/>
      <point x="229" y="1158" type="line"/>
      <point x="501" y="1132" type="line"/>
      <point x="-22" y="145" type="line"/>
      <point x="-171" y="124" type="line"/>
      <point x="-171" y="0" type="line"/>
      <point x="410" y="0" type="line"/>
      <point x="410" y="124" type="line"/>
      <point x="253" y="145" type="line"/>
      <point x="358" y="350" type="line"/>
      <point x="846" y="350" type="line"/>
    </contour>
    <contour>
      <point x="846" y="500" type="line"/>
      <point x="418" y="500" type="line"/>
      <point x="616" y="905" type="line"/>
      <point x="721" y="1155" type="line"/>
      <point x="846" y="1155" type="line"/>
    </contour>
  </outline>
</glyph>
<glyph name="be-cy.sc" format="1">
  <advance width="1316"/>
  <outline>
    <contour>
      <point x="661" y="-125" type="move" name="mark0"/>
    </contour>
    <contour>
      <point x="482" y="754" type="curve"/>
      <point x="483" y="1243" type="line"/>
      <point x="869" y="1234" type="line"/>
      <point x="978" y="897" type="line"/>
      <point x="1115" y="897" type="line"/>
      <point x="1128" y="1292" type="line"/>
      <point x="0" y="1292" type="line"/>
      <point x="-1" y="1257" type="line"/>
      <point x="126" y="1225" type="line"/>
      <point x="125" y="67" type="line"/>
      <point x="-2" y="35" type="line"/>
      <point x="-1" y="0" type="line"/>
      <point x="233" y="0" type="line" smooth="yes"/>
      <point x="369" y="0"/>
      <point x="520" y="-18"/>
      <point x="650" y="-18" type="curve" smooth="yes"/>
      <point x="1022" y="-18"/>
      <point x="1250" y="90"/>
      <point x="1250" y="371" type="curve" smooth="yes"/>
      <point x="1250" y="679"/>
      <point x="979" y="772"/>
      <point x="661" y="772" type="curve" smooth="yes"/>
      <point x="591" y="772"/>
      <point x="526" y="764"/>
    </contour>
    <contour>
      <point x="483" y="63" type="curve"/>
      <point x="483" y="691" type="line"/>
      <point x="511" y="697"/>
      <point x="557" y="701"/>
      <point x="591" y="701" type="curve" smooth="yes"/>
      <point x="800" y="701"/>
      <point x="879" y="580"/>
      <point x="879" y="367" type="curve" smooth="yes"/>
      <point x="879" y="174"/>
      <point x="808" y="40"/>
      <point x="638" y="40" type="curve" smooth="yes"/>
      <point x="561" y="40"/>
      <point x="512" y="53"/>
    </contour>
  </outline>
</glyph>
<glyph name="che-cy.sc" format="1">
  <advance width="1362"/>
  <outline>
    <contour>
      <point x="640" y="-144" type="move" name="btm"/>
    </contour>
    <contour>
      <point x="573" y="1292" type="move" name="top"/>
    </contour>
    <contour>
      <point x="808" y="551" type="curve"/>
      <point x="807" y="67" type="line"/>
      <point x="667" y="35" type="line"/>
      <point x="667" y="0" type="line"/>
      <point x="1291" y="0" type="line"/>
      <point x="1292" y="35" type="line"/>
      <point x="1163" y="67" type="line"/>
      <point x="1165" y="1225" type="line"/>
      <point x="1291" y="1257" type="line"/>
      <point x="1291" y="1292" type="line"/>
      <point x="672" y="1292" type="line"/>
      <point x="671" y="1257" type="line"/>
      <point x="808" y="1225" type="line"/>
      <point x="808" y="619" type="line"/>
      <point x="754" y="599"/>
      <point x="691" y="590"/>
      <point x="620" y="590" type="curve" smooth="yes"/>
      <point x="396" y="590"/>
      <point x="399" y="751"/>
      <point x="399" y="1016" type="curve" smooth="yes"/>
      <point x="400" y="1225" type="line"/>
      <point x="529" y="1257" type="line"/>
      <point x="529" y="1292" type="line"/>
      <point x="-83" y="1292" type="line"/>
      <point x="-84" y="1257" type="line"/>
      <point x="44" y="1225" type="line"/>
      <point x="43" y="857" type="line" smooth="yes"/>
      <point x="44" y="597"/>
      <point x="222" y="506"/>
      <point x="508" y="506" type="curve" smooth="yes"/>
      <point x="637" y="506"/>
      <point x="737" y="527"/>
    </contour>
  </outline>
</glyph>
<glyph name="chedescender-cy.sc" format="1">
  <advance width="1312"/>
  <outline>
    <contour>
      <point x="715" y="-144" type="move" name="btm"/>
    </contour>
    <contour>
      <point x="449" y="1444" type="move" name="top"/>
    </contour>
    <contour>
      <point x="1329" y="69" type="curve"/>
      <point x="1135" y="69" type="line"/>
      <point x="1136" y="1225" type="line"/>
      <point x="1263" y="1257" type="line"/>
      <point x="1262" y="1292" type="line"/>
      <point x="643" y="1292" type="line"/>
      <point x="643" y="1257" type="line"/>
      <point x="779" y="1225" type="line"/>
      <point x="779" y="619" type="line"/>
      <point x="726" y="599"/>
      <point x="662" y="590"/>
      <point x="591" y="590" type="curve" smooth="yes"/>
      <point x="367" y="590"/>
      <point x="370" y="751"/>
      <point x="371" y="1016" type="curve" smooth="yes"/>
      <point x="371" y="1225" type="line"/>
      <point x="501" y="1257" type="line"/>
      <point x="500" y="1292" type="line"/>
      <point x="-111" y="1292" type="line"/>
      <point x="-112" y="1257" type="line"/>
      <point x="15" y="1225" type="line"/>
      <point x="15" y="857" type="line" smooth="yes"/>
      <point x="15" y="597"/>
      <point x="194" y="506"/>
      <point x="480" y="506" type="curve" smooth="yes"/>
      <point x="610" y="506"/>
      <point x="710" y="527"/>
      <point x="780" y="551" type="curve"/>
      <point x="779" y="67" type="line"/>
      <point x="638" y="35" type="line"/>
      <point x="639" y="0" type="line"/>
      <point x="1071" y="0" type="line"/>
      <point x="1085" y="-81"/>
      <point x="1099" y="-270"/>
      <point x="1102" y="-370" type="curve"/>
      <point x="1249" y="-370" type="line"/>
      <point x="1279" y="-257"/>
      <point x="1320" y="-53"/>
    </contour>
  </outline>
</glyph>
<glyph name="chedescenderabkhasian-cy.sc" format="1">
  <advance width="1634"/>
  <outline>
    <contour>
      <point x="1480" y="60" type="curve"/>
      <point x="1498" y="424" type="line"/>
      <point x="1320" y="424" type="line"/>
      <point x="1283" y="247" type="line"/>
      <point x="1251" y="105"/>
      <point x="1171" y="42"/>
      <point x="1055" y="42" type="curve" smooth="yes"/>
      <point x="825" y="42"/>
      <point x="742" y="361"/>
      <point x="711" y="555" type="curve" smooth="yes"/>
      <point x="704" y="604"/>
      <point x="701" y="638"/>
      <point x="699" y="655" type="curve"/>
      <point x="1513" y="655" type="line"/>
      <point x="1527" y="717"/>
      <point x="1531" y="832"/>
      <point x="1518" y="920" type="curve" smooth="yes"/>
      <point x="1476" y="1197"/>
      <point x="1302" y="1310"/>
      <point x="998" y="1310" type="curve" smooth="yes"/>
      <point x="605" y="1310"/>
      <point x="364" y="1087"/>
      <point x="336" y="727" type="curve"/>
      <point x="204" y="739"/>
      <point x="172" y="785"/>
      <point x="165" y="822" type="curve" smooth="yes"/>
      <point x="157" y="881"/>
      <point x="184" y="930"/>
      <point x="210" y="955" type="curve"/>
      <point x="26" y="983" type="line"/>
      <point x="-26" y="932"/>
      <point x="-38" y="873"/>
      <point x="-31" y="831" type="curve" smooth="yes"/>
      <point x="-13" y="713"/>
      <point x="127" y="684"/>
      <point x="333" y="673" type="curve"/>
      <point x="334" y="631"/>
      <point x="337" y="584"/>
      <point x="345" y="520" type="curve" smooth="yes"/>
      <point x="398" y="163"/>
      <point x="646" y="-16"/>
      <point x="1037" y="-16" type="curve" smooth="yes"/>
      <point x="1277" y="-16"/>
      <point x="1400" y="62"/>
    </contour>
    <contour>
      <point x="1221" y="718" type="curve"/>
      <point x="694" y="716" type="line"/>
      <point x="684" y="1047"/>
      <point x="795" y="1252"/>
      <point x="985" y="1252" type="curve" smooth="yes"/>
      <point x="1136" y="1252"/>
      <point x="1192" y="1091"/>
      <point x="1211" y="972" type="curve" smooth="yes"/>
      <point x="1225" y="873"/>
      <point x="1229" y="780"/>
    </contour>
  </outline>
</glyph>
<glyph name="chedieresis-cy.sc" format="1">
  <advance width="1362"/>
  <outline>
    <contour>
      <point x="784" y="1320" type="curve"/>
      <point x="881" y="1320"/>
      <point x="949" y="1417"/>
      <point x="949" y="1516" type="curve" smooth="yes"/>
      <point x="949" y="1606"/>
      <point x="898" y="1666"/>
      <point x="803" y="1666" type="curve" smooth="yes"/>
      <point x="704" y="1666"/>
      <point x="634" y="1577"/>
      <point x="634" y="1489" type="curve" smooth="yes"/>
      <point x="634" y="1388"/>
      <point x="687" y="1320"/>
    </contour>
    <contour>
      <point x="343" y="1320" type="curve"/>
      <point x="442" y="1320"/>
      <point x="511" y="1417"/>
      <point x="511" y="1516" type="curve" smooth="yes"/>
      <point x="511" y="1608"/>
      <point x="458" y="1666"/>
      <point x="361" y="1666" type="curve" smooth="yes"/>
      <point x="264" y="1666"/>
      <point x="197" y="1577"/>
      <point x="197" y="1489" type="curve" smooth="yes"/>
      <point x="197" y="1388"/>
      <point x="248" y="1320"/>
    </contour>
    <contour>
      <point x="808" y="551" type="curve"/>
      <point x="807" y="67" type="line"/>
      <point x="667" y="35" type="line"/>
      <point x="667" y="0" type="line"/>
      <point x="1291" y="0" type="line"/>
      <point x="1292" y="35" type="line"/>
      <point x="1163" y="67" type="line"/>
      <point x="1165" y="1225" type="line"/>
      <point x="1291" y="1257" type="line"/>
      <point x="1291" y="1292" type="line"/>
      <point x="672" y="1292" type="line"/>
      <point x="671" y="1257" type="line"/>
      <point x="808" y="1225" type="line"/>
      <point x="808" y="619" type="line"/>
      <point x="754" y="599"/>
      <point x="691" y="590"/>
      <point x="620" y="590" type="curve" smooth="yes"/>
      <point x="396" y="590"/>
      <point x="399" y="751"/>
      <point x="399" y="1016" type="curve" smooth="yes"/>
      <point x="400" y="1225" type="line"/>
      <point x="529" y="1257" type="line"/>
      <point x="529" y="1292" type="line"/>
      <point x="-83" y="1292" type="line"/>
      <point x="-84" y="1257" type="line"/>
      <point x="44" y="1225" type="line"/>
      <point x="43" y="857" type="line" smooth="yes"/>
      <point x="44" y="597"/>
      <point x="222" y="506"/>
      <point x="508" y="506" type="curve" smooth="yes"/>
      <point x="637" y="506"/>
      <point x="737" y="527"/>
    </contour>
  </outline>
</glyph>
<glyph name="chekhakassian-cy.sc" format="1">
  <advance width="1385"/>
  <outline>
    <contour>
      <point x="793" y="0" type="curve"/>
      <point x="1287" y="0" type="line"/>
      <point x="1287" y="35" type="line"/>
      <point x="1159" y="67" type="line"/>
      <point x="1160" y="1225" type="line"/>
      <point x="1287" y="1257" type="line"/>
      <point x="1287" y="1292" type="line"/>
      <point x="668" y="1292" type="line"/>
      <point x="667" y="1257" type="line"/>
      <point x="804" y="1225" type="line"/>
      <point x="803" y="619" type="line"/>
      <point x="751" y="599"/>
      <point x="686" y="590"/>
      <point x="615" y="590" type="curve" smooth="yes"/>
      <point x="391" y="590"/>
      <point x="394" y="751"/>
      <point x="395" y="1016" type="curve" smooth="yes"/>
      <point x="395" y="1225" type="line"/>
      <point x="525" y="1257" type="line"/>
      <point x="524" y="1292" type="line"/>
      <point x="-87" y="1292" type="line"/>
      <point x="-87" y="1257" type="line"/>
      <point x="39" y="1225" type="line"/>
      <point x="40" y="857" type="line" smooth="yes"/>
      <point x="39" y="597"/>
      <point x="218" y="506"/>
      <point x="504" y="506" type="curve" smooth="yes"/>
      <point x="634" y="506"/>
      <point x="734" y="527"/>
      <point x="804" y="551" type="curve"/>
      <point x="803" y="71" type="line"/>
      <point x="559" y="71" type="line"/>
      <point x="555" y="-13"/>
      <point x="540" y="-284"/>
      <point x="536" y="-370" type="curve"/>
      <point x="674" y="-370" type="line"/>
      <point x="699" y="-286"/>
      <point x="759" y="-81"/>
    </contour>
  </outline>
</glyph>
<glyph name="cheverticalstroke-cy.sc" format="1">
  <advance width="1362"/>
  <outline>
    <contour>
      <point x="808" y="551" type="curve"/>
      <point x="807" y="67" type="line"/>
      <point x="667" y="35" type="line"/>
      <point x="667" y="0" type="line"/>
      <point x="1291" y="0" type="line"/>
      <point x="1292" y="35" type="line"/>
      <point x="1163" y="67" type="line"/>
      <point x="1165" y="1225" type="line"/>
      <point x="1291" y="1257" type="line"/>
      <point x="1291" y="1292" type="line"/>
      <point x="672" y="1292" type="line"/>
      <point x="671" y="1257" type="line"/>
      <point x="808" y="1225" type="line"/>
      <point x="808" y="619" type="line"/>
      <point x="766" y="603"/>
      <point x="717" y="594"/>
      <point x="663" y="591" type="curve"/>
      <point x="661" y="864" type="line"/>
      <point x="596" y="864" type="line"/>
      <point x="597" y="591" type="line"/>
      <point x="386" y="603"/>
      <point x="398" y="792"/>
      <point x="399" y="1016" type="curve" smooth="yes"/>
      <point x="400" y="1225" type="line"/>
      <point x="529" y="1257" type="line"/>
      <point x="529" y="1292" type="line"/>
      <point x="-83" y="1292" type="line"/>
      <point x="-84" y="1257" type="line"/>
      <point x="44" y="1225" type="line"/>
      <point x="43" y="857" type="line" smooth="yes"/>
      <point x="44" y="597"/>
      <point x="222" y="506"/>
      <point x="508" y="506" type="curve" smooth="yes"/>
      <point x="540" y="506"/>
      <point x="575" y="508"/>
      <point x="596" y="511" type="curve"/>
      <point x="597" y="302" type="line"/>
      <point x="663" y="302" type="line"/>
      <point x="663" y="518" type="line"/>
      <point x="722" y="527"/>
      <point x="772" y="540"/>
    </contour>
  </outline>
</glyph>
<glyph name="de-cy.sc" format="1">
  <advance width="1546"/>
  <outline>
    <contour>
      <point x="699" y="-144" type="move" name="btm"/>
    </contour>
    <contour>
      <point x="539" y="1444" type="move" name="top"/>
    </contour>
    <contour>
      <point x="1568" y="69" type="curve"/>
      <point x="1340" y="70" type="line"/>
      <point x="1340" y="1225" type="line"/>
      <point x="1467" y="1257" type="line"/>
      <point x="1467" y="1292" type="line"/>
      <point x="398" y="1292" type="line"/>
      <point x="398" y="1257" type="line"/>
      <point x="544" y="1222" type="line"/>
      <point x="542" y="1128" type="line" smooth="yes"/>
      <point x="530" y="561"/>
      <point x="422" y="188"/>
      <point x="315" y="71" type="curve"/>
      <point x="133" y="71" type="line"/>
      <point x="129" y="-13"/>
      <point x="114" y="-284"/>
      <point x="110" y="-370" type="curve"/>
      <point x="249" y="-370" type="line"/>
      <point x="273" y="-286"/>
      <point x="333" y="-81"/>
      <point x="367" y="0" type="curve"/>
      <point x="1311" y="0" type="line"/>
      <point x="1324" y="-81"/>
      <point x="1338" y="-270"/>
      <point x="1341" y="-370" type="curve"/>
      <point x="1488" y="-370" type="line"/>
      <point x="1518" y="-257"/>
      <point x="1560" y="-53"/>
    </contour>
    <contour>
      <point x="634" y="1104" type="curve" smooth="yes"/>
      <point x="636" y="1221" type="line"/>
      <point x="985" y="1221" type="line"/>
      <point x="984" y="71" type="line"/>
      <point x="447" y="71" type="line"/>
      <point x="549" y="228"/>
      <point x="629" y="622"/>
    </contour>
  </outline>
</glyph>
<glyph name="dje-cy.sc" format="1">
  <advance width="1667"/>
  <outline>
    <contour>
      <point x="551" y="-144" type="move" name="btm"/>
    </contour>
    <contour>
      <point x="440" y="1444" type="move" name="top"/>
    </contour>
    <contour>
      <point x="814" y="691" type="curve"/>
      <point x="816" y="1242" type="line"/>
      <point x="1026" y="1236" type="line"/>
      <point x="1142" y="918" type="line"/>
      <point x="1286" y="918" type="line"/>
      <point x="1287" y="1292" type="line"/>
      <point x="-40" y="1292" type="line"/>
      <point x="-39" y="918" type="line"/>
      <point x="124" y="918" type="line"/>
      <point x="225" y="1235" type="line"/>
      <point x="459" y="1242" type="line"/>
      <point x="458" y="67" type="line"/>
      <point x="244" y="35" type="line"/>
      <point x="245" y="0" type="line"/>
      <point x="995" y="0" type="line"/>
      <point x="995" y="38" type="line"/>
      <point x="815" y="71" type="line"/>
      <point x="813" y="617" type="line"/>
      <point x="865" y="643"/>
      <point x="934" y="666"/>
      <point x="1020" y="666" type="curve" smooth="yes"/>
      <point x="1185" y="666"/>
      <point x="1271" y="550"/>
      <point x="1293" y="404" type="curve" smooth="yes"/>
      <point x="1318" y="249"/>
      <point x="1292" y="140"/>
      <point x="1229" y="90" type="curve" smooth="yes"/>
      <point x="1193" y="60"/>
      <point x="1135" y="52"/>
      <point x="1085" y="60" type="curve"/>
      <point x="1084" y="-1" type="line"/>
      <point x="1111" y="-9"/>
      <point x="1162" y="-12"/>
      <point x="1199" y="-12" type="curve" smooth="yes"/>
      <point x="1484" y="-12"/>
      <point x="1704" y="154"/>
      <point x="1665" y="416" type="curve" smooth="yes"/>
      <point x="1630" y="658"/>
      <point x="1414" y="759"/>
      <point x="1151" y="759" type="curve" smooth="yes"/>
      <point x="1005" y="759"/>
      <point x="886" y="725"/>
    </contour>
  </outline>
</glyph>
<glyph name="dzeabkhasian-cy.sc" format="1">
  <advance width="1348"/>
  <outline>
    <contour>
      <point x="758" y="762" type="curve"/>
      <point x="1222" y="1152" type="line"/>
      <point x="1222" y="1292" type="line"/>
      <point x="106" y="1292" type="line"/>
      <point x="132" y="916" type="line"/>
      <point x="335" y="916" type="line"/>
      <point x="383" y="1120" type="line"/>
      <point x="864" y="1128" type="line"/>
      <point x="783" y="998"/>
      <point x="552" y="848"/>
      <point x="465" y="716" type="curve"/>
      <point x="510" y="626" type="line"/>
      <point x="541" y="630"/>
      <point x="572" y="630"/>
      <point x="598" y="630" type="curve"/>
      <point x="858" y="628"/>
      <point x="904" y="504"/>
      <point x="904" y="380" type="curve" smooth="yes"/>
      <point x="904" y="208"/>
      <point x="773" y="106"/>
      <point x="574" y="106" type="curve" smooth="yes"/>
      <point x="457" y="106"/>
      <point x="405" y="140"/>
      <point x="393" y="154" type="curve"/>
      <point x="324" y="402" type="line"/>
      <point x="132" y="402" type="line"/>
      <point x="85" y="68" type="line"/>
      <point x="151" y="38"/>
      <point x="361" y="-20"/>
      <point x="580" y="-20" type="curve" smooth="yes"/>
      <point x="1100" y="-20"/>
      <point x="1281" y="196"/>
      <point x="1281" y="434" type="curve" smooth="yes"/>
      <point x="1281" y="620"/>
      <point x="1147" y="766"/>
      <point x="848" y="766" type="curve" smooth="yes"/>
      <point x="820" y="766"/>
      <point x="787" y="764"/>
    </contour>
  </outline>
</glyph>
<glyph name="dzhe-cy.sc" format="1">
  <advance width="1461"/>
  <outline>
    <contour>
      <point x="859" y="-144" type="move" name="btm"/>
    </contour>
    <contour>
      <point x="516" y="1444" type="move" name="top"/>
    </contour>
    <contour>
      <point x="-34" y="1292" type="line"/>
      <point x="-34" y="1257" type="line"/>
      <point x="92" y="1225" type="line"/>
      <point x="91" y="67" type="line"/>
      <point x="-36" y="35" type="line"/>
      <point x="-35" y="0" type="line"/>
      <point x="546" y="0" type="line"/>
      <point x="572" y="-97"/>
      <point x="590" y="-231"/>
      <point x="595" y="-370" type="curve"/>
      <point x="749" y="-370" type="line"/>
      <point x="759" y="-222"/>
      <point x="778" y="-97"/>
      <point x="808" y="0" type="curve"/>
      <point x="1366" y="0" type="line"/>
      <point x="1366" y="35" type="line"/>
      <point x="1238" y="67" type="line"/>
      <point x="1239" y="1225" type="line"/>
      <point x="1366" y="1257" type="line"/>
      <point x="1365" y="1292" type="line"/>
      <point x="741" y="1292" type="line"/>
      <point x="741" y="1257" type="line"/>
      <point x="882" y="1225" type="line"/>
      <point x="881" y="71" type="line"/>
      <point x="448" y="71" type="line"/>
      <point x="449" y="1225" type="line"/>
      <point x="584" y="1257" type="line"/>
      <point x="583" y="1292" type="line"/>
    </contour>
  </outline>
</glyph>
<glyph name="e-cy.sc" format="1">
  <advance width="1256"/>
  <outline>
    <contour>
      <point x="729" y="0" type="move" name="btm"/>
    </contour>
    <contour>
      <point x="702" y="1444" type="move" name="top"/>
    </contour>
    <contour>
      <point x="711" y="-19" type="curve" smooth="yes"/>
      <point x="957" y="-19"/>
      <point x="1081" y="53"/>
      <point x="1170" y="51" type="curve"/>
      <point x="1190" y="409" type="line"/>
      <point x="1013" y="409" type="line"/>
      <point x="1004" y="344"/>
      <point x="964" y="153"/>
      <point x="945" y="120" type="curve"/>
      <point x="922" y="72"/>
      <point x="832" y="40"/>
      <point x="741" y="40" type="curve" smooth="yes"/>
      <point x="550" y="40"/>
      <point x="446" y="332"/>
      <point x="419" y="484" type="curve" smooth="yes"/>
      <point x="414" y="525"/>
      <point x="409" y="570"/>
      <point x="406" y="618" type="curve"/>
      <point x="607" y="590"/>
      <point x="809" y="562"/>
      <point x="924" y="557" type="curve"/>
      <point x="929" y="762" type="line"/>
      <point x="402" y="707" type="line"/>
      <point x="394" y="965"/>
      <point x="457" y="1251"/>
      <point x="702" y="1251" type="curve" smooth="yes"/>
      <point x="771" y="1251"/>
      <point x="823" y="1242"/>
      <point x="867" y="1226" type="curve"/>
      <point x="947" y="865" type="line"/>
      <point x="1145" y="865" type="line"/>
      <point x="1149" y="1261" type="line"/>
      <point x="1024" y="1261"/>
      <point x="932" y="1310"/>
      <point x="710" y="1310" type="curve" smooth="yes"/>
      <point x="225" y="1310"/>
      <point x="-25" y="1010"/>
      <point x="42" y="560" type="curve" smooth="yes"/>
      <point x="97" y="190"/>
      <point x="308" y="-19"/>
    </contour>
  </outline>
</glyph>
<glyph name="edieresis-cy.sc" format="1">
  <advance width="1259"/>
  <outline>
    <contour>
      <point x="733" y="1320" type="curve"/>
      <point x="830" y="1320"/>
      <point x="897" y="1417"/>
      <point x="897" y="1516" type="curve" smooth="yes"/>
      <point x="897" y="1606"/>
      <point x="846" y="1666"/>
      <point x="751" y="1666" type="curve" smooth="yes"/>
      <point x="652" y="1666"/>
      <point x="583" y="1577"/>
      <point x="583" y="1489" type="curve" smooth="yes"/>
      <point x="583" y="1388"/>
      <point x="636" y="1320"/>
    </contour>
    <contour>
      <point x="291" y="1320" type="curve"/>
      <point x="390" y="1320"/>
      <point x="460" y="1417"/>
      <point x="460" y="1516" type="curve" smooth="yes"/>
      <point x="460" y="1608"/>
      <point x="407" y="1666"/>
      <point x="310" y="1666" type="curve" smooth="yes"/>
      <point x="213" y="1666"/>
      <point x="145" y="1577"/>
      <point x="145" y="1489" type="curve" smooth="yes"/>
      <point x="145" y="1388"/>
      <point x="196" y="1320"/>
    </contour>
    <contour>
      <point x="1" y="1231" type="curve"/>
      <point x="1" y="889" type="line"/>
      <point x="205" y="889" type="line"/>
      <point x="251" y="1131" type="line"/>
      <point x="289" y="1191"/>
      <point x="357" y="1251"/>
      <point x="468" y="1251" type="curve" smooth="yes"/>
      <point x="703" y="1251"/>
      <point x="784" y="958"/>
      <point x="816" y="754" type="curve" smooth="yes"/>
      <point x="820" y="726"/>
      <point x="822" y="693"/>
      <point x="822" y="687" type="curve"/>
      <point x="284" y="751" type="line"/>
      <point x="279" y="546" type="line"/>
      <point x="418" y="561"/>
      <point x="636" y="585"/>
      <point x="825" y="600" type="curve"/>
      <point x="831" y="260"/>
      <point x="722" y="40"/>
      <point x="501" y="40" type="curve" smooth="yes"/>
      <point x="394" y="40"/>
      <point x="310" y="66"/>
      <point x="246" y="114" type="curve"/>
      <point x="197" y="406" type="line"/>
      <point x="26" y="405" type="line"/>
      <point x="12" y="94" type="line"/>
      <point x="147" y="49"/>
      <point x="316" y="-18"/>
      <point x="502" y="-18" type="curve" smooth="yes"/>
      <point x="992" y="-18"/>
      <point x="1240" y="303"/>
      <point x="1173" y="748" type="curve" smooth="yes"/>
      <point x="1118" y="1121"/>
      <point x="890" y="1310"/>
      <point x="483" y="1310" type="curve" smooth="yes"/>
      <point x="280" y="1310"/>
      <point x="93" y="1266"/>
    </contour>
  </outline>
</glyph>
<glyph name="ef-cy.sc" format="1">
  <advance width="1896"/>
  <outline>
    <contour>
      <point x="961" y="-144" type="move" name="btm"/>
    </contour>
    <contour>
      <point x="946" y="1444" type="move" name="top"/>
    </contour>
    <contour>
      <point x="1117" y="1177" type="curve"/>
      <point x="1117" y="1315" type="line"/>
      <point x="1270" y="1347" type="line"/>
      <point x="1269" y="1382" type="line"/>
      <point x="640" y="1382" type="line"/>
      <point x="640" y="1347" type="line"/>
      <point x="779" y="1315" type="line"/>
      <point x="779" y="1177" type="line"/>
      <point x="189" y="1148"/>
      <point x="-14" y="910"/>
      <point x="30" y="633" type="curve" smooth="yes"/>
      <point x="68" y="400"/>
      <point x="285" y="208"/>
      <point x="783" y="187" type="curve"/>
      <point x="784" y="40" type="line"/>
      <point x="645" y="8" type="line"/>
      <point x="646" y="-27" type="line"/>
      <point x="1272" y="-27" type="line"/>
      <point x="1272" y="8" type="line"/>
      <point x="1121" y="40" type="line"/>
      <point x="1121" y="192" type="line"/>
      <point x="1643" y="238"/>
      <point x="1907" y="449"/>
      <point x="1859" y="760" type="curve" smooth="yes"/>
      <point x="1818" y="1026"/>
      <point x="1543" y="1148"/>
    </contour>
    <contour>
      <point x="779" y="1117" type="curve"/>
      <point x="783" y="265" type="line"/>
      <point x="571" y="303"/>
      <point x="423" y="433"/>
      <point x="394" y="621" type="curve" smooth="yes"/>
      <point x="354" y="872"/>
      <point x="446" y="1072"/>
    </contour>
    <contour>
      <point x="1120" y="260" type="curve"/>
      <point x="1116" y="1105" type="line"/>
      <point x="1337" y="1066"/>
      <point x="1470" y="935"/>
      <point x="1498" y="748" type="curve" smooth="yes"/>
      <point x="1536" y="515"/>
      <point x="1433" y="318"/>
    </contour>
  </outline>
</glyph>
<glyph name="el-cy.sc" format="1">
  <advance width="1517"/>
  <outline>
    <contour>
      <point x="632" y="-144" type="move" name="btm"/>
    </contour>
    <contour>
      <point x="444" y="1444" type="move" name="top"/>
    </contour>
    <contour>
      <point x="620" y="1058" type="curve" smooth="yes"/>
      <point x="623" y="1221" type="line"/>
      <point x="961" y="1221" type="line"/>
      <point x="960" y="67" type="line"/>
      <point x="794" y="35" type="line"/>
      <point x="795" y="0" type="line"/>
      <point x="1445" y="0" type="line"/>
      <point x="1445" y="35" type="line"/>
      <point x="1317" y="67" type="line"/>
      <point x="1318" y="1225" type="line"/>
      <point x="1445" y="1257" type="line"/>
      <point x="1444" y="1292" type="line"/>
      <point x="385" y="1292" type="line"/>
      <point x="385" y="1257" type="line"/>
      <point x="531" y="1222" type="line"/>
      <point x="527" y="1081" type="line" smooth="yes"/>
      <point x="516" y="674"/>
      <point x="480" y="429"/>
      <point x="415" y="315" type="curve" smooth="yes"/>
      <point x="380" y="259"/>
      <point x="325" y="226"/>
      <point x="243" y="226" type="curve" smooth="yes"/>
      <point x="191" y="226"/>
      <point x="151" y="231"/>
      <point x="123" y="237" type="curve"/>
      <point x="115" y="1" type="line"/>
      <point x="148" y="-13"/>
      <point x="201" y="-26"/>
      <point x="262" y="-26" type="curve" smooth="yes"/>
      <point x="407" y="-26"/>
      <point x="492" y="54"/>
      <point x="544" y="218" type="curve" smooth="yes"/>
      <point x="602" y="388"/>
      <point x="613" y="665"/>
    </contour>
  </outline>
</glyph>
<glyph name="eldescender-cy.sc" format="1">
  <advance width="1544"/>
  <outline>
    <contour>
      <point x="572" y="-144" type="move" name="btm"/>
    </contour>
    <contour>
      <point x="445" y="1444" type="move" name="top"/>
    </contour>
    <contour>
      <point x="1307" y="1225" type="line"/>
      <point x="1434" y="1257" type="line"/>
      <point x="1433" y="1292" type="line"/>
      <point x="374" y="1292" type="line"/>
      <point x="374" y="1257" type="line"/>
      <point x="521" y="1222" type="line"/>
      <point x="516" y="1081" type="line" smooth="yes"/>
      <point x="506" y="674"/>
      <point x="469" y="429"/>
      <point x="404" y="315" type="curve" smooth="yes"/>
      <point x="370" y="259"/>
      <point x="314" y="226"/>
      <point x="232" y="226" type="curve" smooth="yes"/>
      <point x="179" y="226"/>
      <point x="141" y="231"/>
      <point x="113" y="237" type="curve"/>
      <point x="104" y="1" type="line"/>
      <point x="138" y="-13"/>
      <point x="191" y="-26"/>
      <point x="252" y="-26" type="curve" smooth="yes"/>
      <point x="397" y="-26"/>
      <point x="482" y="54"/>
      <point x="533" y="218" type="curve" smooth="yes"/>
      <point x="591" y="388"/>
      <point x="602" y="665"/>
      <point x="609" y="1058" type="curve" smooth="yes"/>
      <point x="613" y="1221" type="line"/>
      <point x="951" y="1221" type="line"/>
      <point x="949" y="67" type="line"/>
      <point x="783" y="35" type="line"/>
      <point x="784" y="0" type="line"/>
      <point x="1245" y="0" type="line"/>
      <point x="1258" y="-81"/>
      <point x="1272" y="-270"/>
      <point x="1275" y="-370" type="curve"/>
      <point x="1422" y="-370" type="line"/>
      <point x="1452" y="-257"/>
      <point x="1494" y="-53"/>
      <point x="1502" y="69" type="curve"/>
      <point x="1306" y="69" type="line"/>
    </contour>
  </outline>
</glyph>
<glyph name="elhook-cy.sc" format="1">
  <advance width="1594"/>
  <outline>
    <contour>
      <point x="1242" y="-25" type="curve" smooth="yes"/>
      <point x="1338" y="139"/>
      <point x="1307" y="571"/>
      <point x="1293" y="1225" type="curve"/>
      <point x="1419" y="1257" type="line"/>
      <point x="1419" y="1292" type="line"/>
      <point x="380" y="1292" type="line"/>
      <point x="379" y="1257" type="line"/>
      <point x="526" y="1222" type="line"/>
      <point x="521" y="1081" type="line" smooth="yes"/>
      <point x="511" y="674"/>
      <point x="475" y="429"/>
      <point x="410" y="315" type="curve" smooth="yes"/>
      <point x="375" y="259"/>
      <point x="320" y="226"/>
      <point x="238" y="226" type="curve" smooth="yes"/>
      <point x="186" y="226"/>
      <point x="147" y="231"/>
      <point x="118" y="237" type="curve"/>
      <point x="109" y="1" type="line"/>
      <point x="143" y="-13"/>
      <point x="196" y="-26"/>
      <point x="257" y="-26" type="curve" smooth="yes"/>
      <point x="402" y="-26"/>
      <point x="487" y="54"/>
      <point x="539" y="218" type="curve" smooth="yes"/>
      <point x="597" y="388"/>
      <point x="607" y="665"/>
      <point x="615" y="1058" type="curve" smooth="yes"/>
      <point x="618" y="1221" type="line"/>
      <point x="956" y="1221" type="line"/>
      <point x="975" y="604"/>
      <point x="985" y="160"/>
      <point x="931" y="-9" type="curve" smooth="yes"/>
      <point x="892" y="-123"/>
      <point x="823" y="-191"/>
      <point x="679" y="-243" type="curve"/>
      <point x="721" y="-292" type="line"/>
      <point x="999" y="-233"/>
      <point x="1172" y="-136"/>
    </contour>
  </outline>
</glyph>
<glyph name="eltail-cy.sc" format="1">
  <advance width="1608"/>
  <outline>
    <contour>
      <point x="700" y="-144" type="move" name="btm"/>
    </contour>
    <contour>
      <point x="513" y="1444" type="move" name="top"/>
    </contour>
    <contour>
      <point x="1512" y="19" type="curve"/>
      <point x="1511" y="39" type="line"/>
      <point x="1306" y="73" type="line"/>
      <point x="1307" y="1225" type="line"/>
      <point x="1434" y="1257" type="line"/>
      <point x="1433" y="1292" type="line"/>
      <point x="374" y="1292" type="line"/>
      <point x="374" y="1257" type="line"/>
      <point x="521" y="1222" type="line"/>
      <point x="516" y="1081" type="line" smooth="yes"/>
      <point x="506" y="674"/>
      <point x="469" y="429"/>
      <point x="404" y="315" type="curve" smooth="yes"/>
      <point x="370" y="259"/>
      <point x="314" y="226"/>
      <point x="232" y="226" type="curve" smooth="yes"/>
      <point x="179" y="226"/>
      <point x="141" y="231"/>
      <point x="113" y="237" type="curve"/>
      <point x="104" y="1" type="line"/>
      <point x="138" y="-13"/>
      <point x="190" y="-26"/>
      <point x="252" y="-26" type="curve" smooth="yes"/>
      <point x="397" y="-26"/>
      <point x="482" y="54"/>
      <point x="533" y="218" type="curve" smooth="yes"/>
      <point x="591" y="388"/>
      <point x="602" y="665"/>
      <point x="609" y="1058" type="curve" smooth="yes"/>
      <point x="613" y="1221" type="line"/>
      <point x="951" y="1221" type="line"/>
      <point x="949" y="67" type="line"/>
      <point x="783" y="35" type="line"/>
      <point x="784" y="0" type="line"/>
      <point x="1233" y="0" type="line"/>
      <point x="1225" y="-83"/>
      <point x="1162" y="-214"/>
      <point x="1056" y="-309" type="curve"/>
      <point x="1151" y="-370" type="line"/>
      <point x="1337" y="-299"/>
      <point x="1480" y="-117"/>
    </contour>
  </outline>
</glyph>
<glyph name="enhook-cy.sc" format="1">
  <advance width="1669"/>
  <outline>
    <contour>
      <point x="733" y="-144" type="move" name="btm"/>
    </contour>
    <contour>
      <point x="469" y="1444" type="move" name="top"/>
    </contour>
    <contour>
      <point x="957" y="686" type="curve"/>
      <point x="467" y="686" type="line"/>
      <point x="467" y="1225" type="line"/>
      <point x="614" y="1257" type="line"/>
      <point x="614" y="1292" type="line"/>
      <point x="-16" y="1292" type="line"/>
      <point x="-16" y="1257" type="line"/>
      <point x="110" y="1225" type="line"/>
      <point x="110" y="67" type="line"/>
      <point x="-18" y="35" type="line"/>
      <point x="-17" y="0" type="line"/>
      <point x="605" y="0" type="line"/>
      <point x="605" y="35" type="line"/>
      <point x="466" y="67" type="line"/>
      <point x="466" y="621" type="line"/>
      <point x="957" y="621" type="line"/>
      <point x="958" y="365"/>
      <point x="948" y="126"/>
      <point x="909" y="8" type="curve" smooth="yes"/>
      <point x="872" y="-96"/>
      <point x="794" y="-171"/>
      <point x="667" y="-223" type="curve"/>
      <point x="708" y="-270" type="line"/>
      <point x="995" y="-214"/>
      <point x="1207" y="-107"/>
      <point x="1270" y="94" type="curve" smooth="yes"/>
      <point x="1324" y="271"/>
      <point x="1298" y="723"/>
      <point x="1295" y="1225" type="curve"/>
      <point x="1422" y="1257" type="line"/>
      <point x="1421" y="1292" type="line"/>
      <point x="802" y="1292" type="line"/>
      <point x="801" y="1257" type="line"/>
      <point x="938" y="1225" type="line"/>
      <point x="945" y="1068"/>
      <point x="954" y="875"/>
    </contour>
  </outline>
</glyph>
<glyph name="enlefthook-cy.sc" format="1">
  <advance width="1644"/>
  <outline>
    <contour>
      <point x="582" y="624" type="curve"/>
      <point x="1066" y="624" type="line"/>
      <point x="1066" y="67" type="line"/>
      <point x="927" y="35" type="line"/>
      <point x="928" y="0" type="line"/>
      <point x="1550" y="0" type="line"/>
      <point x="1550" y="35" type="line"/>
      <point x="1422" y="67" type="line"/>
      <point x="1423" y="1225" type="line"/>
      <point x="1550" y="1257" type="line"/>
      <point x="1549" y="1292" type="line"/>
      <point x="929" y="1292" type="line"/>
      <point x="929" y="1257" type="line"/>
      <point x="1067" y="1225" type="line"/>
      <point x="1066" y="684" type="line"/>
      <point x="580" y="684" type="line"/>
      <point x="578" y="847"/>
      <point x="577" y="1033"/>
      <point x="577" y="1225" type="curve"/>
      <point x="724" y="1257" type="line"/>
      <point x="724" y="1292" type="line"/>
      <point x="66" y="1292" type="line"/>
      <point x="65" y="1257" type="line"/>
      <point x="221" y="1225" type="line"/>
      <point x="229" y="1060"/>
      <point x="237" y="830"/>
      <point x="238" y="624" type="curve" smooth="yes"/>
      <point x="240" y="384"/>
      <point x="232" y="139"/>
      <point x="187" y="8" type="curve" smooth="yes"/>
      <point x="149" y="-96"/>
      <point x="72" y="-171"/>
      <point x="-55" y="-223" type="curve"/>
      <point x="-14" y="-270" type="line"/>
      <point x="272" y="-214"/>
      <point x="487" y="-107"/>
      <point x="549" y="94" type="curve" smooth="yes"/>
      <point x="581" y="195"/>
      <point x="583" y="336"/>
    </contour>
  </outline>
</glyph>
<glyph name="ereversed-cy.sc" format="1">
  <advance width="1259"/>
  <outline>
    <contour>
      <point x="521" y="1292" type="move" name="top"/>
    </contour>
    <contour>
      <point x="1" y="1231" type="curve"/>
      <point x="1" y="889" type="line"/>
      <point x="205" y="889" type="line"/>
      <point x="251" y="1131" type="line"/>
      <point x="289" y="1191"/>
      <point x="357" y="1251"/>
      <point x="468" y="1251" type="curve" smooth="yes"/>
      <point x="703" y="1251"/>
      <point x="784" y="958"/>
      <point x="816" y="754" type="curve" smooth="yes"/>
      <point x="820" y="726"/>
      <point x="822" y="693"/>
      <point x="822" y="687" type="curve"/>
      <point x="284" y="751" type="line"/>
      <point x="279" y="546" type="line"/>
      <point x="418" y="561"/>
      <point x="636" y="585"/>
      <point x="825" y="600" type="curve"/>
      <point x="831" y="260"/>
      <point x="722" y="40"/>
      <point x="501" y="40" type="curve" smooth="yes"/>
      <point x="394" y="40"/>
      <point x="310" y="66"/>
      <point x="246" y="114" type="curve"/>
      <point x="197" y="406" type="line"/>
      <point x="26" y="405" type="line"/>
      <point x="12" y="94" type="line"/>
      <point x="147" y="49"/>
      <point x="316" y="-18"/>
      <point x="502" y="-18" type="curve" smooth="yes"/>
      <point x="992" y="-18"/>
      <point x="1240" y="303"/>
      <point x="1173" y="748" type="curve" smooth="yes"/>
      <point x="1118" y="1121"/>
      <point x="890" y="1310"/>
      <point x="483" y="1310" type="curve" smooth="yes"/>
      <point x="280" y="1310"/>
      <point x="93" y="1266"/>
    </contour>
  </outline>
</glyph>
<glyph name="ge-cy.sc" format="1">
  <advance width="1099"/>
  <outline>
    <contour>
      <point x="484" y="1292" type="move" name="top"/>
    </contour>
    <contour>
      <point x="558" y="648" type="move" name="center"/>
    </contour>
    <contour>
      <point x="165" y="0" type="move" name="bottomright"/>
    </contour>
    <contour>
      <point x="0" y="1292" type="line"/>
      <point x="-1" y="1257" type="line"/>
      <point x="126" y="1225" type="line"/>
      <point x="125" y="67" type="line"/>
      <point x="-2" y="35" type="line"/>
      <point x="-2" y="0" type="line"/>
      <point x="722" y="0" type="line"/>
      <point x="723" y="35" type="line"/>
      <point x="481" y="67" type="line"/>
      <point x="482" y="1241" type="line"/>
      <point x="759" y="1231" type="line"/>
      <point x="868" y="800" type="line"/>
      <point x="1010" y="800" type="line"/>
      <point x="1012" y="1292" type="line"/>
    </contour>
  </outline>
</glyph>
<glyph name="gedescender-cy.sc" format="1">
  <advance width="1123"/>
  <outline>
    <contour>
      <point x="735" y="69" type="curve"/>
      <point x="455" y="70" type="line"/>
      <point x="455" y="1241" type="line"/>
      <point x="732" y="1231" type="line"/>
      <point x="841" y="800" type="line"/>
      <point x="983" y="800" type="line"/>
      <point x="984" y="1292" type="line"/>
      <point x="-28" y="1292" type="line"/>
      <point x="-28" y="1257" type="line"/>
      <point x="98" y="1225" type="line"/>
      <point x="98" y="67" type="line"/>
      <point x="-30" y="35" type="line"/>
      <point x="-29" y="0" type="line"/>
      <point x="478" y="0" type="line"/>
      <point x="491" y="-81"/>
      <point x="505" y="-270"/>
      <point x="508" y="-370" type="curve"/>
      <point x="655" y="-370" type="line"/>
      <point x="685" y="-257"/>
      <point x="727" y="-53"/>
    </contour>
  </outline>
</glyph>
<glyph name="gestrokehook-cy.sc" format="1">
  <advance width="1094"/>
  <outline>
    <contour>
      <point x="570" y="-449" type="curve" smooth="yes"/>
      <point x="748" y="-449"/>
      <point x="811" y="-337"/>
      <point x="787" y="-175" type="curve" smooth="yes"/>
      <point x="772" y="-76"/>
      <point x="726" y="-2"/>
      <point x="692" y="34" type="curve"/>
      <point x="443" y="67" type="line"/>
      <point x="443" y="614" type="line"/>
      <point x="724" y="614" type="line"/>
      <point x="724" y="670" type="line"/>
      <point x="443" y="670" type="line"/>
      <point x="443" y="1241" type="line"/>
      <point x="720" y="1231" type="line"/>
      <point x="829" y="800" type="line"/>
      <point x="971" y="800" type="line"/>
      <point x="973" y="1292" type="line"/>
      <point x="-39" y="1292" type="line"/>
      <point x="-39" y="1257" type="line"/>
      <point x="88" y="1225" type="line"/>
      <point x="88" y="670" type="line"/>
      <point x="-63" y="670" type="line"/>
      <point x="-64" y="614" type="line"/>
      <point x="88" y="614" type="line"/>
      <point x="88" y="67" type="line"/>
      <point x="-41" y="35" type="line"/>
      <point x="-40" y="0" type="line"/>
      <point x="648" y="0" type="line"/>
      <point x="666" y="-24"/>
      <point x="683" y="-54"/>
      <point x="691" y="-108" type="curve" smooth="yes"/>
      <point x="707" y="-214"/>
      <point x="637" y="-269"/>
      <point x="520" y="-269" type="curve" smooth="yes"/>
      <point x="463" y="-269"/>
      <point x="417" y="-261"/>
      <point x="393" y="-253" type="curve"/>
      <point x="392" y="-406" type="line"/>
      <point x="439" y="-435"/>
      <point x="507" y="-449"/>
    </contour>
  </outline>
</glyph>
<glyph name="ghemiddlehook-cy.sc" format="1">
  <advance width="1277"/>
  <outline>
    <contour>
      <point x="458" y="658" type="curve"/>
      <point x="459" y="1242" type="line"/>
      <point x="789" y="1236" type="line"/>
      <point x="900" y="918" type="line"/>
      <point x="1044" y="918" type="line"/>
      <point x="1046" y="1292" type="line"/>
      <point x="-24" y="1292" type="line"/>
      <point x="-24" y="1257" type="line"/>
      <point x="102" y="1225" type="line"/>
      <point x="102" y="67" type="line"/>
      <point x="-26" y="35" type="line"/>
      <point x="-25" y="0" type="line"/>
      <point x="660" y="0" type="line"/>
      <point x="660" y="35" type="line"/>
      <point x="458" y="67" type="line"/>
      <point x="458" y="584" type="line"/>
      <point x="512" y="617"/>
      <point x="583" y="638"/>
      <point x="665" y="638" type="curve" smooth="yes"/>
      <point x="820" y="638"/>
      <point x="868" y="512"/>
      <point x="890" y="377" type="curve" smooth="yes"/>
      <point x="935" y="91"/>
      <point x="872" y="-243"/>
      <point x="559" y="-243" type="curve" smooth="yes"/>
      <point x="539" y="-243"/>
      <point x="517" y="-242"/>
      <point x="499" y="-239" type="curve"/>
      <point x="500" y="-306" type="line"/>
      <point x="521" y="-310"/>
      <point x="555" y="-312"/>
      <point x="588" y="-312" type="curve" smooth="yes"/>
      <point x="1029" y="-312"/>
      <point x="1296" y="-37"/>
      <point x="1236" y="373" type="curve" smooth="yes"/>
      <point x="1199" y="616"/>
      <point x="1062" y="740"/>
      <point x="796" y="740" type="curve" smooth="yes"/>
      <point x="670" y="740"/>
      <point x="545" y="711"/>
    </contour>
  </outline>
</glyph>
<glyph name="ghestroke-cy.sc" format="1">
  <advance width="1170"/>
  <outline>
    <contour>
      <point x="67" y="1292" type="line"/>
      <point x="66" y="1257" type="line"/>
      <point x="193" y="1225" type="line"/>
      <point x="193" y="664" type="line"/>
      <point x="44" y="664" type="line"/>
      <point x="41" y="606" type="line"/>
      <point x="192" y="606" type="line"/>
      <point x="192" y="67" type="line"/>
      <point x="65" y="35" type="line"/>
      <point x="65" y="0" type="line"/>
      <point x="789" y="0" type="line"/>
      <point x="790" y="35" type="line"/>
      <point x="548" y="67" type="line"/>
      <point x="549" y="606" type="line"/>
      <point x="829" y="606" type="line"/>
      <point x="830" y="664" type="line"/>
      <point x="549" y="664" type="line"/>
      <point x="549" y="1241" type="line"/>
      <point x="826" y="1231" type="line"/>
      <point x="935" y="800" type="line"/>
      <point x="1077" y="800" type="line"/>
      <point x="1079" y="1292" type="line"/>
    </contour>
  </outline>
</glyph>
<glyph name="gheupturn-cy.sc" format="1">
  <advance width="1019"/>
  <outline>
    <contour>
      <point x="369" y="-144" type="move" name="btm"/>
    </contour>
    <contour>
      <point x="767" y="-144" type="move" name="mark0"/>
    </contour>
    <contour>
      <point x="820" y="1602" type="line"/>
      <point x="696" y="1292" type="line"/>
      <point x="23" y="1292" type="line"/>
      <point x="23" y="1257" type="line"/>
      <point x="149" y="1225" type="line"/>
      <point x="149" y="67" type="line"/>
      <point x="21" y="35" type="line"/>
      <point x="22" y="0" type="line"/>
      <point x="746" y="0" type="line"/>
      <point x="746" y="35" type="line"/>
      <point x="505" y="67" type="line"/>
      <point x="506" y="1241" type="line"/>
      <point x="928" y="1223" type="line"/>
      <point x="930" y="1602" type="line"/>
    </contour>
  </outline>
</glyph>
<glyph name="gje-cy.sc" format="1">
  <advance width="1099"/>
  <outline>
    <contour>
      <point x="399" y="1310" type="line"/>
      <point x="545" y="1357"/>
      <point x="738" y="1477"/>
      <point x="836" y="1612" type="curve"/>
      <point x="633" y="1754" type="line"/>
      <point x="315" y="1363" type="line"/>
    </contour>
    <contour>
      <point x="0" y="1292" type="line"/>
      <point x="-1" y="1257" type="line"/>
      <point x="126" y="1225" type="line"/>
      <point x="125" y="67" type="line"/>
      <point x="-2" y="35" type="line"/>
      <point x="-2" y="0" type="line"/>
      <point x="722" y="0" type="line"/>
      <point x="723" y="35" type="line"/>
      <point x="481" y="67" type="line"/>
      <point x="482" y="1241" type="line"/>
      <point x="759" y="1231" type="line"/>
      <point x="868" y="800" type="line"/>
      <point x="1010" y="800" type="line"/>
      <point x="1012" y="1292" type="line"/>
    </contour>
  </outline>
</glyph>
<glyph name="haabkhasian-cy.sc" format="1">
  <advance width="1804"/>
  <outline>
    <contour>
      <point x="806" y="1292" type="move" name="top"/>
    </contour>
    <contour>
      <point x="862" y="-23" type="curve" smooth="yes"/>
      <point x="1030" y="-23"/>
      <point x="1145" y="20"/>
      <point x="1244" y="75" type="curve"/>
      <point x="1104" y="53" type="line"/>
      <point x="1190" y="6"/>
      <point x="1308" y="-13"/>
      <point x="1399" y="-13" type="curve" smooth="yes"/>
      <point x="1468" y="-13"/>
      <point x="1532" y="-5"/>
      <point x="1563" y="10" type="curve"/>
      <point x="1572" y="70" type="line"/>
      <point x="1550" y="62"/>
      <point x="1511" y="51"/>
      <point x="1445" y="51" type="curve" smooth="yes"/>
      <point x="1368" y="51"/>
      <point x="1277" y="63"/>
      <point x="1213" y="116" type="curve"/>
      <point x="1248" y="75" type="line"/>
      <point x="1570" y="215"/>
      <point x="1709" y="475"/>
      <point x="1671" y="723" type="curve" smooth="yes"/>
      <point x="1636" y="965"/>
      <point x="1458" y="1101"/>
      <point x="1197" y="1101" type="curve" smooth="yes"/>
      <point x="845" y="1101"/>
      <point x="673" y="856"/>
      <point x="721" y="532" type="curve" smooth="yes"/>
      <point x="754" y="313"/>
      <point x="900" y="134"/>
      <point x="1111" y="45" type="curve"/>
      <point x="1146" y="89" type="line"/>
      <point x="1116" y="78"/>
      <point x="1043" y="43"/>
      <point x="929" y="43" type="curve" smooth="yes"/>
      <point x="646" y="43"/>
      <point x="503" y="288"/>
      <point x="464" y="540" type="curve" smooth="yes"/>
      <point x="415" y="860"/>
      <point x="503" y="1242"/>
      <point x="857" y="1242" type="curve" smooth="yes"/>
      <point x="940" y="1242"/>
      <point x="1011" y="1234"/>
      <point x="1084" y="1189" type="curve"/>
      <point x="1111" y="1242" type="line"/>
      <point x="1034" y="1301"/>
      <point x="911" y="1310"/>
      <point x="812" y="1310" type="curve" smooth="yes"/>
      <point x="312" y="1310"/>
      <point x="45" y="1003"/>
      <point x="113" y="540" type="curve" smooth="yes"/>
      <point x="168" y="168"/>
      <point x="458" y="-23"/>
    </contour>
    <contour>
      <point x="1185" y="1049" type="curve" smooth="yes"/>
      <point x="1311" y="1049"/>
      <point x="1354" y="896"/>
      <point x="1372" y="788" type="curve" smooth="yes"/>
      <point x="1417" y="483"/>
      <point x="1355" y="171"/>
      <point x="1150" y="85" type="curve"/>
      <point x="1237" y="98" type="line"/>
      <point x="1140" y="138"/>
      <point x="1035" y="288"/>
      <point x="998" y="543" type="curve" smooth="yes"/>
      <point x="971" y="717"/>
      <point x="987" y="1049"/>
    </contour>
  </outline>
</glyph>
<glyph name="hadescender-cy.sc" format="1">
  <advance width="1225"/>
  <outline>
    <contour>
      <point x="535" y="-144" type="move" name="btm"/>
    </contour>
    <contour>
      <point x="537" y="1444" type="move" name="top"/>
    </contour>
    <contour>
      <point x="1362" y="69" type="curve"/>
      <point x="1117" y="70" type="line"/>
      <point x="698" y="727" type="line"/>
      <point x="1089" y="1216" type="line"/>
      <point x="1245" y="1256" type="line"/>
      <point x="1244" y="1291" type="line"/>
      <point x="780" y="1291" type="line"/>
      <point x="779" y="1256" type="line"/>
      <point x="971" y="1216" type="line"/>
      <point x="659" y="787" type="line"/>
      <point x="411" y="1216" type="line"/>
      <point x="571" y="1257" type="line"/>
      <point x="571" y="1292" type="line"/>
      <point x="-126" y="1292" type="line"/>
      <point x="-124" y="1257" type="line"/>
      <point x="16" y="1216" type="line"/>
      <point x="422" y="579" type="line"/>
      <point x="28" y="71" type="line"/>
      <point x="-137" y="35" type="line"/>
      <point x="-137" y="0" type="line"/>
      <point x="352" y="0" type="line"/>
      <point x="351" y="35" type="line"/>
      <point x="152" y="70" type="line"/>
      <point x="461" y="518" type="line"/>
      <point x="724" y="73" type="line"/>
      <point x="568" y="35" type="line"/>
      <point x="568" y="0" type="line"/>
      <point x="1105" y="0" type="line"/>
      <point x="1118" y="-81"/>
      <point x="1132" y="-270"/>
      <point x="1135" y="-370" type="curve"/>
      <point x="1282" y="-370" type="line"/>
      <point x="1312" y="-257"/>
      <point x="1354" y="-53"/>
    </contour>
  </outline>
</glyph>
<glyph name="hahook-cy.sc" format="1">
  <advance width="1414"/>
  <outline>
    <contour>
      <point x="753" y="728" type="curve"/>
      <point x="1143" y="1216" type="line"/>
      <point x="1300" y="1256" type="line"/>
      <point x="1300" y="1291" type="line"/>
      <point x="835" y="1291" type="line"/>
      <point x="835" y="1256" type="line"/>
      <point x="1026" y="1216" type="line"/>
      <point x="714" y="787" type="line"/>
      <point x="466" y="1216" type="line"/>
      <point x="626" y="1257" type="line"/>
      <point x="626" y="1292" type="line"/>
      <point x="-70" y="1292" type="line"/>
      <point x="-68" y="1257" type="line"/>
      <point x="71" y="1216" type="line"/>
      <point x="477" y="579" type="line"/>
      <point x="84" y="71" type="line"/>
      <point x="-82" y="35" type="line"/>
      <point x="-81" y="0" type="line"/>
      <point x="408" y="0" type="line"/>
      <point x="407" y="35" type="line"/>
      <point x="207" y="70" type="line"/>
      <point x="518" y="520" type="line"/>
      <point x="674" y="299"/>
      <point x="772" y="128"/>
      <point x="792" y="-11" type="curve" smooth="yes"/>
      <point x="809" y="-124"/>
      <point x="800" y="-231"/>
      <point x="644" y="-276" type="curve"/>
      <point x="665" y="-315" type="line"/>
      <point x="993" y="-250"/>
      <point x="1128" y="-111"/>
      <point x="1095" y="115" type="curve" smooth="yes"/>
      <point x="1075" y="250"/>
      <point x="1002" y="384"/>
    </contour>
  </outline>
</glyph>
<glyph name="hardsign-cy.sc" format="1">
  <advance width="1585"/>
  <outline>
    <contour>
      <point x="607" y="-144" type="move" name="btm"/>
    </contour>
    <contour>
      <point x="431" y="1444" type="move" name="top"/>
    </contour>
    <contour>
      <point x="796" y="754" type="curve"/>
      <point x="796" y="1225" type="line"/>
      <point x="936" y="1257" type="line"/>
      <point x="935" y="1292" type="line"/>
      <point x="-31" y="1292" type="line"/>
      <point x="-31" y="893" type="line"/>
      <point x="131" y="893" type="line"/>
      <point x="233" y="1234" type="line"/>
      <point x="440" y="1243" type="line"/>
      <point x="439" y="67" type="line"/>
      <point x="312" y="35" type="line"/>
      <point x="313" y="0" type="line"/>
      <point x="547" y="0" type="line" smooth="yes"/>
      <point x="683" y="0"/>
      <point x="834" y="-18"/>
      <point x="964" y="-18" type="curve" smooth="yes"/>
      <point x="1314" y="-18"/>
      <point x="1606" y="93"/>
      <point x="1558" y="413" type="curve" smooth="yes"/>
      <point x="1517" y="685"/>
      <point x="1271" y="772"/>
      <point x="975" y="772" type="curve" smooth="yes"/>
      <point x="905" y="772"/>
      <point x="840" y="764"/>
    </contour>
    <contour>
      <point x="797" y="63" type="curve"/>
      <point x="797" y="691" type="line"/>
      <point x="825" y="697"/>
      <point x="868" y="701"/>
      <point x="902" y="701" type="curve" smooth="yes"/>
      <point x="1088" y="701"/>
      <point x="1161" y="589"/>
      <point x="1186" y="427" type="curve" smooth="yes"/>
      <point x="1215" y="242"/>
      <point x="1165" y="40"/>
      <point x="952" y="40" type="curve" smooth="yes"/>
      <point x="875" y="40"/>
      <point x="826" y="53"/>
    </contour>
  </outline>
</glyph>
<glyph name="ia-cy.sc" format="1">
  <advance width="1464"/>
  <outline>
    <contour>
      <point x="857" y="-144" type="move" name="btm"/>
    </contour>
    <contour>
      <point x="966" y="1454" type="move" name="top"/>
    </contour>
    <contour>
      <point x="1048" y="557" type="curve"/>
      <point x="1046" y="67" type="line"/>
      <point x="891" y="35" type="line"/>
      <point x="892" y="0" type="line"/>
      <point x="1531" y="0" type="line"/>
      <point x="1531" y="35" type="line"/>
      <point x="1403" y="67" type="line"/>
      <point x="1403" y="1225" type="line"/>
      <point x="1531" y="1257" type="line"/>
      <point x="1530" y="1292" type="line"/>
      <point x="1241" y="1292" type="line" smooth="yes"/>
      <point x="1094" y="1292"/>
      <point x="999" y="1297"/>
      <point x="881" y="1297" type="curve" smooth="yes"/>
      <point x="557" y="1297"/>
      <point x="286" y="1168"/>
      <point x="330" y="872" type="curve" smooth="yes"/>
      <point x="351" y="740"/>
      <point x="471" y="591"/>
      <point x="672" y="591" type="curve"/>
      <point x="374" y="537"/>
      <point x="307" y="88"/>
      <point x="163" y="46" type="curve" smooth="yes"/>
      <point x="114" y="35" type="line"/>
      <point x="115" y="0" type="line"/>
      <point x="555" y="0" type="line" smooth="yes"/>
      <point x="692" y="0"/>
      <point x="743" y="518"/>
      <point x="874" y="554" type="curve"/>
      <point x="938" y="553"/>
      <point x="995" y="554"/>
    </contour>
    <contour>
      <point x="1048" y="1243" type="curve"/>
      <point x="1047" y="619" type="line"/>
      <point x="1018" y="615"/>
      <point x="969" y="614"/>
      <point x="913" y="614" type="curve" smooth="yes"/>
      <point x="769" y="614"/>
      <point x="711" y="763"/>
      <point x="692" y="887" type="curve" smooth="yes"/>
      <point x="666" y="1049"/>
      <point x="728" y="1248"/>
      <point x="917" y="1248" type="curve" smooth="yes"/>
      <point x="969" y="1248"/>
      <point x="1016" y="1246"/>
    </contour>
  </outline>
</glyph>
<glyph name="idieresis-cy.sc" format="1">
  <advance width="1545"/>
  <outline>
    <contour>
      <point x="943" y="1320" type="curve"/>
      <point x="1040" y="1320"/>
      <point x="1107" y="1417"/>
      <point x="1107" y="1516" type="curve" smooth="yes"/>
      <point x="1107" y="1606"/>
      <point x="1056" y="1666"/>
      <point x="961" y="1666" type="curve" smooth="yes"/>
      <point x="862" y="1666"/>
      <point x="793" y="1577"/>
      <point x="793" y="1489" type="curve" smooth="yes"/>
      <point x="793" y="1388"/>
      <point x="846" y="1320"/>
    </contour>
    <contour>
      <point x="501" y="1320" type="curve"/>
      <point x="600" y="1320"/>
      <point x="670" y="1417"/>
      <point x="670" y="1516" type="curve" smooth="yes"/>
      <point x="670" y="1608"/>
      <point x="617" y="1666"/>
      <point x="520" y="1666" type="curve" smooth="yes"/>
      <point x="423" y="1666"/>
      <point x="355" y="1577"/>
      <point x="355" y="1489" type="curve" smooth="yes"/>
      <point x="355" y="1388"/>
      <point x="406" y="1320"/>
    </contour>
    <contour>
      <point x="0" y="1292" type="line"/>
      <point x="-1" y="1257" type="line"/>
      <point x="126" y="1225" type="line"/>
      <point x="124" y="67" type="line"/>
      <point x="-2" y="35" type="line"/>
      <point x="-2" y="0" type="line"/>
      <point x="620" y="0" type="line"/>
      <point x="621" y="35" type="line"/>
      <point x="481" y="67" type="line"/>
      <point x="482" y="197" type="line"/>
      <point x="902" y="833" type="line"/>
      <point x="990" y="979" type="line"/>
      <point x="989" y="67" type="line"/>
      <point x="852" y="35" type="line"/>
      <point x="852" y="0" type="line"/>
      <point x="1474" y="0" type="line"/>
      <point x="1475" y="35" type="line"/>
      <point x="1346" y="67" type="line"/>
      <point x="1347" y="1225" type="line"/>
      <point x="1474" y="1257" type="line"/>
      <point x="1474" y="1292" type="line"/>
      <point x="854" y="1292" type="line"/>
      <point x="853" y="1257" type="line"/>
      <point x="991" y="1225" type="line"/>
      <point x="991" y="1100" type="line"/>
      <point x="613" y="550" type="line"/>
      <point x="481" y="335" type="line"/>
      <point x="483" y="1225" type="line"/>
      <point x="629" y="1257" type="line"/>
      <point x="629" y="1292" type="line"/>
    </contour>
  </outline>
</glyph>
<glyph name="ii-cy.sc" format="1">
  <advance width="1545"/>
  <outline>
    <contour>
      <point x="731" y="1292" type="move" name="top"/>
    </contour>
    <contour>
      <point x="1602" y="0" type="move" name="bottomright"/>
    </contour>
    <contour>
      <point x="0" y="1292" type="line"/>
      <point x="-1" y="1257" type="line"/>
      <point x="126" y="1225" type="line"/>
      <point x="124" y="67" type="line"/>
      <point x="-2" y="35" type="line"/>
      <point x="-2" y="0" type="line"/>
      <point x="620" y="0" type="line"/>
      <point x="621" y="35" type="line"/>
      <point x="481" y="67" type="line"/>
      <point x="482" y="197" type="line"/>
      <point x="902" y="833" type="line"/>
      <point x="990" y="979" type="line"/>
      <point x="989" y="67" type="line"/>
      <point x="852" y="35" type="line"/>
      <point x="852" y="0" type="line"/>
      <point x="1474" y="0" type="line"/>
      <point x="1475" y="35" type="line"/>
      <point x="1346" y="67" type="line"/>
      <point x="1347" y="1225" type="line"/>
      <point x="1474" y="1257" type="line"/>
      <point x="1474" y="1292" type="line"/>
      <point x="854" y="1292" type="line"/>
      <point x="853" y="1257" type="line"/>
      <point x="991" y="1225" type="line"/>
      <point x="991" y="1100" type="line"/>
      <point x="613" y="550" type="line"/>
      <point x="481" y="335" type="line"/>
      <point x="483" y="1225" type="line"/>
      <point x="629" y="1257" type="line"/>
      <point x="629" y="1292" type="line"/>
    </contour>
  </outline>
</glyph>
<glyph name="iigrave-cy.sc" format="1">
  <advance width="1545"/>
  <outline>
    <contour>
      <point x="825" y="1309" type="curve"/>
      <point x="908" y="1362" type="line"/>
      <point x="590" y="1753" type="line"/>
      <point x="387" y="1611" type="line"/>
      <point x="485" y="1476"/>
      <point x="678" y="1356"/>
    </contour>
    <contour>
      <point x="0" y="1292" type="line"/>
      <point x="-1" y="1257" type="line"/>
      <point x="126" y="1225" type="line"/>
      <point x="124" y="67" type="line"/>
      <point x="-2" y="35" type="line"/>
      <point x="-2" y="0" type="line"/>
      <point x="620" y="0" type="line"/>
      <point x="621" y="35" type="line"/>
      <point x="481" y="67" type="line"/>
      <point x="482" y="197" type="line"/>
      <point x="902" y="833" type="line"/>
      <point x="990" y="979" type="line"/>
      <point x="989" y="67" type="line"/>
      <point x="852" y="35" type="line"/>
      <point x="852" y="0" type="line"/>
      <point x="1474" y="0" type="line"/>
      <point x="1475" y="35" type="line"/>
      <point x="1346" y="67" type="line"/>
      <point x="1347" y="1225" type="line"/>
      <point x="1474" y="1257" type="line"/>
      <point x="1474" y="1292" type="line"/>
      <point x="854" y="1292" type="line"/>
      <point x="853" y="1257" type="line"/>
      <point x="991" y="1225" type="line"/>
      <point x="991" y="1100" type="line"/>
      <point x="613" y="550" type="line"/>
      <point x="481" y="335" type="line"/>
      <point x="483" y="1225" type="line"/>
      <point x="629" y="1257" type="line"/>
      <point x="629" y="1292" type="line"/>
    </contour>
  </outline>
</glyph>
<glyph name="iishort-cy.sc" format="1">
  <advance width="1545"/>
  <outline>
    <contour>
      <point x="515" y="1656" type="curve" smooth="yes"/>
      <point x="345" y="1656" type="line"/>
      <point x="342" y="1638"/>
      <point x="341" y="1620"/>
      <point x="341" y="1602" type="curve" smooth="yes"/>
      <point x="341" y="1419"/>
      <point x="486" y="1300"/>
      <point x="732" y="1300" type="curve" smooth="yes"/>
      <point x="978" y="1300"/>
      <point x="1123" y="1419"/>
      <point x="1123" y="1602" type="curve" smooth="yes"/>
      <point x="1123" y="1620"/>
      <point x="1122" y="1638"/>
      <point x="1119" y="1656" type="curve"/>
      <point x="949" y="1656" type="line" smooth="yes"/>
      <point x="894" y="1656"/>
      <point x="884" y="1608"/>
      <point x="884" y="1531" type="curve" smooth="yes"/>
      <point x="884" y="1419"/>
      <point x="837" y="1350"/>
      <point x="732" y="1350" type="curve" smooth="yes"/>
      <point x="627" y="1350"/>
      <point x="579" y="1419"/>
      <point x="579" y="1531" type="curve" smooth="yes"/>
      <point x="579" y="1608"/>
      <point x="569" y="1656"/>
    </contour>
    <contour>
      <point x="0" y="1292" type="line"/>
      <point x="-1" y="1257" type="line"/>
      <point x="126" y="1225" type="line"/>
      <point x="124" y="67" type="line"/>
      <point x="-2" y="35" type="line"/>
      <point x="-2" y="0" type="line"/>
      <point x="620" y="0" type="line"/>
      <point x="621" y="35" type="line"/>
      <point x="481" y="67" type="line"/>
      <point x="482" y="197" type="line"/>
      <point x="902" y="833" type="line"/>
      <point x="990" y="979" type="line"/>
      <point x="989" y="67" type="line"/>
      <point x="852" y="35" type="line"/>
      <point x="852" y="0" type="line"/>
      <point x="1474" y="0" type="line"/>
      <point x="1475" y="35" type="line"/>
      <point x="1346" y="67" type="line"/>
      <point x="1347" y="1225" type="line"/>
      <point x="1474" y="1257" type="line"/>
      <point x="1474" y="1292" type="line"/>
      <point x="854" y="1292" type="line"/>
      <point x="853" y="1257" type="line"/>
      <point x="991" y="1225" type="line"/>
      <point x="991" y="1100" type="line"/>
      <point x="613" y="550" type="line"/>
      <point x="481" y="335" type="line"/>
      <point x="483" y="1225" type="line"/>
      <point x="629" y="1257" type="line"/>
      <point x="629" y="1292" type="line"/>
    </contour>
  </outline>
</glyph>
<glyph name="iu-cy.sc" format="1">
  <advance width="2170"/>
  <outline>
    <contour>
      <point x="755" y="1444" type="move" name="top"/>
    </contour>
    <contour>
      <point x="755" y="710" type="curve"/>
      <point x="475" y="710" type="line"/>
      <point x="473" y="1172" type="line"/>
      <point x="641" y="1192" type="line"/>
      <point x="639" y="1292" type="line"/>
      <point x="-25" y="1292" type="line"/>
      <point x="-20" y="1192" type="line"/>
      <point x="131" y="1172" type="line"/>
      <point x="134" y="122" type="line"/>
      <point x="-15" y="96" type="line"/>
      <point x="-15" y="0" type="line"/>
      <point x="662" y="0" type="line"/>
      <point x="654" y="96" type="line"/>
      <point x="477" y="122" type="line"/>
      <point x="475" y="582" type="line"/>
      <point x="761" y="582" type="line"/>
      <point x="762" y="576"/>
      <point x="764" y="564"/>
      <point x="765" y="556" type="curve" smooth="yes"/>
      <point x="816" y="226"/>
      <point x="1034" y="-18"/>
      <point x="1445" y="-18" type="curve" smooth="yes"/>
      <point x="2002" y="-18"/>
      <point x="2176" y="376"/>
      <point x="2119" y="744" type="curve" smooth="yes"/>
      <point x="2072" y="1046"/>
      <point x="1859" y="1310"/>
      <point x="1440" y="1310" type="curve" smooth="yes"/>
      <point x="976" y="1310"/>
      <point x="767" y="1026"/>
    </contour>
    <contour>
      <point x="1458" y="94" type="curve" smooth="yes"/>
      <point x="1289" y="94"/>
      <point x="1180" y="250"/>
      <point x="1133" y="570" type="curve" smooth="yes"/>
      <point x="1084" y="876"/>
      <point x="1176" y="1198"/>
      <point x="1432" y="1198" type="curve" smooth="yes"/>
      <point x="1601" y="1198"/>
      <point x="1706" y="1048"/>
      <point x="1755" y="724" type="curve" smooth="yes"/>
      <point x="1808" y="378"/>
      <point x="1722" y="94"/>
    </contour>
  </outline>
</glyph>
<glyph name="izhitsa-cy.sc" format="1">
  <advance width="1313"/>
  <outline>
    <contour>
      <point x="700" y="-144" type="move" name="btm"/>
    </contour>
    <contour>
      <point x="404" y="1444" type="move" name="top"/>
    </contour>
    <contour>
      <point x="780" y="1002" type="curve" smooth="yes"/>
      <point x="656" y="339" type="line"/>
      <point x="613" y="143" type="line"/>
      <point x="556" y="345" type="line"/>
      <point x="278" y="1225" type="line"/>
      <point x="435" y="1257" type="line"/>
      <point x="435" y="1292" type="line"/>
      <point x="-215" y="1292" type="line"/>
      <point x="-214" y="1257" type="line"/>
      <point x="-93" y="1225" type="line"/>
      <point x="336" y="-8" type="line"/>
      <point x="643" y="-8" type="line"/>
      <point x="914" y="886" type="line" smooth="yes"/>
      <point x="950" y="1001"/>
      <point x="990" y="1111"/>
      <point x="1122" y="1111" type="curve" smooth="yes"/>
      <point x="1144" y="1111"/>
      <point x="1161" y="1108"/>
      <point x="1175" y="1101" type="curve"/>
      <point x="1166" y="1290" type="line"/>
      <point x="1139" y="1299"/>
      <point x="1110" y="1306"/>
      <point x="1058" y="1306" type="curve" smooth="yes"/>
      <point x="865" y="1306"/>
      <point x="813" y="1179"/>
    </contour>
  </outline>
</glyph>
<glyph name="ka-cy.sc" format="1">
  <advance width="1274"/>
  <outline>
    <contour>
      <point x="620" y="1292" type="move" name="top"/>
    </contour>
    <contour>
      <point x="602" y="614" type="line"/>
      <point x="1106" y="1220" type="line"/>
      <point x="1269" y="1254" type="line"/>
      <point x="1268" y="1292" type="line"/>
      <point x="802" y="1292" type="line"/>
      <point x="803" y="1254" type="line"/>
      <point x="970" y="1220" type="line"/>
      <point x="581" y="718" type="line"/>
      <point x="418" y="718" type="line"/>
      <point x="419" y="1225" type="line"/>
      <point x="565" y="1257" type="line"/>
      <point x="565" y="1292" type="line"/>
      <point x="-64" y="1292" type="line"/>
      <point x="-65" y="1257" type="line"/>
      <point x="62" y="1225" type="line"/>
      <point x="61" y="67" type="line"/>
      <point x="-66" y="35" type="line"/>
      <point x="-66" y="0" type="line"/>
      <point x="565" y="0" type="line"/>
      <point x="566" y="35" type="line"/>
      <point x="417" y="67" type="line"/>
      <point x="418" y="646" type="line"/>
      <point x="480" y="646" type="line" smooth="yes"/>
      <point x="635" y="646"/>
      <point x="816" y="0"/>
      <point x="930" y="0" type="curve" smooth="yes"/>
      <point x="1359" y="0" type="line"/>
      <point x="1360" y="35" type="line"/>
      <point x="1269" y="57" type="line" smooth="yes"/>
      <point x="1029" y="368"/>
      <point x="946" y="770"/>
      <point x="573" y="713" type="curve"/>
    </contour>
  </outline>
</glyph>
<glyph name="kabashkir-cy.sc" format="1">
  <advance width="1640"/>
  <outline>
    <contour>
      <point x="1064" y="-144" type="move" name="btm"/>
    </contour>
    <contour>
      <point x="775" y="1444" type="move" name="top"/>
    </contour>
    <contour>
      <point x="1047" y="716" type="curve"/>
      <point x="1472" y="1220" type="line"/>
      <point x="1636" y="1254" type="line"/>
      <point x="1635" y="1292" type="line"/>
      <point x="1169" y="1292" type="line"/>
      <point x="1169" y="1254" type="line"/>
      <point x="1336" y="1220" type="line"/>
      <point x="948" y="718" type="line"/>
      <point x="784" y="718" type="line"/>
      <point x="786" y="1225" type="line"/>
      <point x="925" y="1257" type="line"/>
      <point x="925" y="1292" type="line"/>
      <point x="-41" y="1292" type="line"/>
      <point x="-42" y="893" type="line"/>
      <point x="120" y="893" type="line"/>
      <point x="222" y="1234" type="line"/>
      <point x="429" y="1243" type="line"/>
      <point x="427" y="67" type="line"/>
      <point x="301" y="35" type="line"/>
      <point x="301" y="0" type="line"/>
      <point x="931" y="0" type="line"/>
      <point x="933" y="35" type="line"/>
      <point x="784" y="67" type="line"/>
      <point x="785" y="646" type="line"/>
      <point x="846" y="646" type="line" smooth="yes"/>
      <point x="1002" y="646"/>
      <point x="1182" y="0"/>
      <point x="1296" y="0" type="curve" smooth="yes"/>
      <point x="1725" y="0" type="line"/>
      <point x="1726" y="35" type="line"/>
      <point x="1636" y="57" type="line" smooth="yes"/>
      <point x="1421" y="334"/>
      <point x="1329" y="684"/>
    </contour>
  </outline>
</glyph>
<glyph name="kadescender-cy.sc" format="1">
  <advance width="1325"/>
  <outline>
    <contour>
      <point x="-93" y="0" type="line"/>
      <point x="538" y="0" type="line"/>
      <point x="538" y="35" type="line"/>
      <point x="390" y="67" type="line"/>
      <point x="391" y="646" type="line"/>
      <point x="452" y="646" type="line" smooth="yes"/>
      <point x="608" y="646"/>
      <point x="789" y="0"/>
      <point x="903" y="0" type="curve" smooth="yes"/>
      <point x="1127" y="0" type="line"/>
      <point x="1141" y="-81"/>
      <point x="1155" y="-270"/>
      <point x="1158" y="-370" type="curve"/>
      <point x="1305" y="-370" type="line"/>
      <point x="1335" y="-257"/>
      <point x="1376" y="-53"/>
      <point x="1385" y="69" type="curve"/>
      <point x="1241" y="69" type="line"/>
      <point x="1037" y="237"/>
      <point x="938" y="800"/>
      <point x="539" y="709" type="curve"/>
      <point x="575" y="614" type="line"/>
      <point x="1079" y="1220" type="line"/>
      <point x="1241" y="1254" type="line"/>
      <point x="1240" y="1292" type="line"/>
      <point x="774" y="1292" type="line"/>
      <point x="775" y="1254" type="line"/>
      <point x="943" y="1220" type="line"/>
      <point x="554" y="718" type="line"/>
      <point x="390" y="718" type="line"/>
      <point x="391" y="1225" type="line"/>
      <point x="537" y="1257" type="line"/>
      <point x="537" y="1292" type="line"/>
      <point x="-92" y="1292" type="line"/>
      <point x="-92" y="1257" type="line"/>
      <point x="34" y="1225" type="line"/>
      <point x="34" y="67" type="line"/>
      <point x="-94" y="35" type="line"/>
    </contour>
  </outline>
</glyph>
<glyph name="kahook-cy.sc" format="1">
  <advance width="1266"/>
  <outline>
    <contour>
      <point x="707" y="-144" type="move" name="btm"/>
    </contour>
    <contour>
      <point x="421" y="1444" type="move" name="top"/>
    </contour>
    <contour>
      <point x="395" y="658" type="curve"/>
      <point x="395" y="1225" type="line"/>
      <point x="535" y="1257" type="line"/>
      <point x="534" y="1292" type="line"/>
      <point x="-88" y="1292" type="line"/>
      <point x="-88" y="1257" type="line"/>
      <point x="39" y="1225" type="line"/>
      <point x="38" y="67" type="line"/>
      <point x="-89" y="35" type="line"/>
      <point x="-89" y="0" type="line"/>
      <point x="531" y="0" type="line"/>
      <point x="531" y="35" type="line"/>
      <point x="394" y="67" type="line"/>
      <point x="395" y="584" type="line"/>
      <point x="449" y="617"/>
      <point x="523" y="638"/>
      <point x="602" y="638" type="curve" smooth="yes"/>
      <point x="760" y="638"/>
      <point x="812" y="512"/>
      <point x="834" y="377" type="curve" smooth="yes"/>
      <point x="880" y="91"/>
      <point x="814" y="-243"/>
      <point x="503" y="-243" type="curve" smooth="yes"/>
      <point x="483" y="-243"/>
      <point x="461" y="-242"/>
      <point x="443" y="-239" type="curve"/>
      <point x="444" y="-306" type="line"/>
      <point x="465" y="-310"/>
      <point x="499" y="-312"/>
      <point x="532" y="-312" type="curve" smooth="yes"/>
      <point x="966" y="-312"/>
      <point x="1240" y="-31"/>
      <point x="1180" y="373" type="curve" smooth="yes"/>
      <point x="1140" y="645"/>
      <point x="977" y="753"/>
      <point x="679" y="738" type="curve"/>
      <point x="1082" y="1220" type="line"/>
      <point x="1244" y="1254" type="line"/>
      <point x="1244" y="1292" type="line"/>
      <point x="777" y="1292" type="line"/>
      <point x="778" y="1254" type="line"/>
      <point x="946" y="1220" type="line"/>
      <point x="561" y="720" type="line"/>
      <point x="498" y="706"/>
      <point x="441" y="685"/>
    </contour>
  </outline>
</glyph>
<glyph name="kastroke-cy.sc" format="1">
  <advance width="1304"/>
  <outline>
    <contour>
      <point x="804" y="-144" type="move" name="btm"/>
    </contour>
    <contour>
      <point x="516" y="1444" type="move" name="top"/>
    </contour>
    <contour>
      <point x="718" y="716" type="curve"/>
      <point x="1143" y="1220" type="line"/>
      <point x="1306" y="1254" type="line"/>
      <point x="1305" y="1292" type="line"/>
      <point x="839" y="1292" type="line"/>
      <point x="840" y="1254" type="line"/>
      <point x="1007" y="1220" type="line"/>
      <point x="618" y="718" type="line"/>
      <point x="455" y="718" type="line"/>
      <point x="455" y="944" type="line"/>
      <point x="635" y="944" type="line"/>
      <point x="636" y="1002" type="line"/>
      <point x="455" y="1002" type="line"/>
      <point x="456" y="1225" type="line"/>
      <point x="602" y="1257" type="line"/>
      <point x="602" y="1292" type="line"/>
      <point x="-27" y="1292" type="line"/>
      <point x="-28" y="1257" type="line"/>
      <point x="99" y="1225" type="line"/>
      <point x="98" y="1002" type="line"/>
      <point x="-33" y="1002" type="line"/>
      <point x="-35" y="944" type="line"/>
      <point x="98" y="944" type="line"/>
      <point x="98" y="67" type="line"/>
      <point x="-29" y="35" type="line"/>
      <point x="-29" y="0" type="line"/>
      <point x="602" y="0" type="line"/>
      <point x="603" y="35" type="line"/>
      <point x="454" y="67" type="line"/>
      <point x="456" y="646" type="line"/>
      <point x="517" y="646" type="line" smooth="yes"/>
      <point x="672" y="646"/>
      <point x="853" y="0"/>
      <point x="967" y="0" type="curve" smooth="yes"/>
      <point x="1396" y="0" type="line"/>
      <point x="1397" y="35" type="line"/>
      <point x="1306" y="57" type="line" smooth="yes"/>
      <point x="1092" y="334"/>
      <point x="1000" y="684"/>
    </contour>
  </outline>
</glyph>
<glyph name="kaverticalstroke-cy.sc" format="1">
  <advance width="1437"/>
  <outline>
    <contour>
      <point x="749" y="716" type="curve"/>
      <point x="1174" y="1220" type="line"/>
      <point x="1337" y="1254" type="line"/>
      <point x="1337" y="1292" type="line"/>
      <point x="871" y="1292" type="line"/>
      <point x="871" y="1254" type="line"/>
      <point x="1038" y="1220" type="line"/>
      <point x="650" y="718" type="line"/>
      <point x="575" y="718" type="line"/>
      <point x="575" y="966" type="line"/>
      <point x="510" y="966" type="line"/>
      <point x="510" y="718" type="line"/>
      <point x="418" y="718" type="line"/>
      <point x="419" y="1225" type="line"/>
      <point x="565" y="1257" type="line"/>
      <point x="565" y="1292" type="line"/>
      <point x="-64" y="1292" type="line"/>
      <point x="-65" y="1257" type="line"/>
      <point x="62" y="1225" type="line"/>
      <point x="61" y="67" type="line"/>
      <point x="-66" y="35" type="line"/>
      <point x="-66" y="0" type="line"/>
      <point x="565" y="0" type="line"/>
      <point x="566" y="35" type="line"/>
      <point x="417" y="67" type="line"/>
      <point x="418" y="646" type="line"/>
      <point x="510" y="646" type="line"/>
      <point x="510" y="373" type="line"/>
      <point x="575" y="373" type="line"/>
      <point x="575" y="646" type="line"/>
      <point x="586" y="646" type="line"/>
      <point x="699" y="590"/>
      <point x="893" y="0"/>
      <point x="998" y="0" type="curve" smooth="yes"/>
      <point x="1427" y="0" type="line"/>
      <point x="1428" y="35" type="line"/>
      <point x="1338" y="57" type="line" smooth="yes"/>
      <point x="1123" y="334"/>
      <point x="1031" y="684"/>
    </contour>
  </outline>
</glyph>
<glyph name="komide-cy.sc" format="1">
  <advance width="1382"/>
  <outline>
    <contour>
      <point x="430" y="1444" type="move" name="top"/>
    </contour>
    <contour>
      <point x="1044" y="0" type="curve" smooth="yes"/>
      <point x="1310" y="0" type="line"/>
      <point x="1310" y="35" type="line"/>
      <point x="1180" y="67" type="line"/>
      <point x="1180" y="1225" type="line"/>
      <point x="1307" y="1257" type="line"/>
      <point x="1306" y="1292" type="line"/>
      <point x="687" y="1292" type="line"/>
      <point x="687" y="1257" type="line"/>
      <point x="825" y="1225" type="line"/>
      <point x="824" y="766" type="line"/>
      <point x="773" y="777"/>
      <point x="709" y="782"/>
      <point x="646" y="782" type="curve" smooth="yes"/>
      <point x="293" y="782"/>
      <point x="17" y="659"/>
      <point x="66" y="339" type="curve" smooth="yes"/>
      <point x="106" y="67"/>
      <point x="347" y="-18"/>
      <point x="642" y="-18" type="curve" smooth="yes"/>
      <point x="774" y="-18"/>
      <point x="895" y="0"/>
    </contour>
    <contour>
      <point x="824" y="708" type="curve"/>
      <point x="825" y="49" type="line"/>
      <point x="791" y="43"/>
      <point x="750" y="40"/>
      <point x="697" y="40" type="curve" smooth="yes"/>
      <point x="530" y="40"/>
      <point x="463" y="151"/>
      <point x="440" y="297" type="curve" smooth="yes"/>
      <point x="407" y="503"/>
      <point x="445" y="726"/>
      <point x="680" y="726" type="curve" smooth="yes"/>
      <point x="735" y="726"/>
      <point x="790" y="719"/>
    </contour>
  </outline>
</glyph>
<glyph name="komidje-cy.sc" format="1">
  <advance width="1847"/>
  <outline>
    <contour>
      <point x="250" y="1444" type="move" name="top"/>
    </contour>
    <contour>
      <point x="1429" y="295" type="curve" smooth="yes"/>
      <point x="1429" y="129"/>
      <point x="1414" y="38"/>
      <point x="1303" y="38" type="curve" smooth="yes"/>
      <point x="1207" y="38"/>
      <point x="1180" y="123"/>
      <point x="1181" y="260" type="curve" smooth="yes"/>
      <point x="1180" y="1225" type="line"/>
      <point x="1307" y="1257" type="line"/>
      <point x="1306" y="1292" type="line"/>
      <point x="687" y="1292" type="line"/>
      <point x="687" y="1257" type="line"/>
      <point x="825" y="1225" type="line"/>
      <point x="824" y="766" type="line"/>
      <point x="773" y="777"/>
      <point x="714" y="782"/>
      <point x="651" y="782" type="curve" smooth="yes"/>
      <point x="352" y="782"/>
      <point x="60" y="644"/>
      <point x="60" y="374" type="curve" smooth="yes"/>
      <point x="60" y="73"/>
      <point x="295" y="-18"/>
      <point x="638" y="-18" type="curve" smooth="yes"/>
      <point x="776" y="-18"/>
      <point x="902" y="2"/>
      <point x="1095" y="2" type="curve"/>
      <point x="1151" y="-13"/>
      <point x="1239" y="-20"/>
      <point x="1302" y="-20" type="curve" smooth="yes"/>
      <point x="1595" y="-20"/>
      <point x="1735" y="104"/>
      <point x="1725" y="366" type="curve" smooth="yes"/>
      <point x="1725" y="366"/>
      <point x="1725" y="588"/>
      <point x="1724" y="588" type="curve"/>
      <point x="1851" y="620" type="line"/>
      <point x="1850" y="655" type="line"/>
      <point x="1290" y="655" type="line"/>
      <point x="1290" y="620" type="line"/>
      <point x="1429" y="588" type="line"/>
      <point x="1429" y="588"/>
      <point x="1429" y="295"/>
    </contour>
    <contour>
      <point x="697" y="40" type="curve" smooth="yes"/>
      <point x="499" y="40"/>
      <point x="429" y="180"/>
      <point x="429" y="380" type="curve" smooth="yes"/>
      <point x="429" y="557"/>
      <point x="501" y="726"/>
      <point x="686" y="726" type="curve" smooth="yes"/>
      <point x="741" y="726"/>
      <point x="790" y="719"/>
      <point x="824" y="708" type="curve"/>
      <point x="824" y="49" type="line"/>
      <point x="791" y="43"/>
      <point x="750" y="40"/>
    </contour>
  </outline>
</glyph>
<glyph name="komidzje-cy.sc" format="1">
  <advance width="846"/>
  <outline>
    <contour>
      <point x="464" y="-144" type="move" name="btm"/>
    </contour>
    <contour>
      <point x="205" y="1444" type="move" name="top"/>
    </contour>
    <contour>
      <point x="502" y="0" type="curve" smooth="yes"/>
      <point x="652" y="0" type="line"/>
      <point x="672" y="-87"/>
      <point x="683" y="-266"/>
      <point x="687" y="-331" type="curve"/>
      <point x="859" y="-331" type="line"/>
      <point x="880" y="-262"/>
      <point x="919" y="-74"/>
      <point x="927" y="126" type="curve"/>
      <point x="801" y="121" type="line" smooth="yes"/>
      <point x="741" y="158"/>
      <point x="706" y="204"/>
      <point x="625" y="312" type="curve" smooth="yes"/>
      <point x="579" y="374"/>
      <point x="481" y="546"/>
      <point x="417" y="600" type="curve"/>
      <point x="647" y="662"/>
      <point x="723" y="801"/>
      <point x="697" y="970" type="curve" smooth="yes"/>
      <point x="661" y="1212"/>
      <point x="460" y="1306"/>
      <point x="99" y="1306" type="curve" smooth="yes"/>
      <point x="15" y="1306"/>
      <point x="-49" y="1304"/>
      <point x="-103" y="1298" type="curve"/>
      <point x="-100" y="1177" type="line"/>
      <point x="-58" y="1187"/>
      <point x="-15" y="1191"/>
      <point x="49" y="1191" type="curve" smooth="yes"/>
      <point x="221" y="1191"/>
      <point x="326" y="1115"/>
      <point x="347" y="981" type="curve" smooth="yes"/>
      <point x="388" y="702"/>
      <point x="230" y="683"/>
      <point x="87" y="683" type="curve" smooth="yes"/>
      <point x="9" y="683"/>
      <point x="-63" y="683"/>
      <point x="-80" y="687" type="curve"/>
      <point x="-78" y="558" type="line"/>
      <point x="-17" y="558"/>
      <point x="91" y="560"/>
      <point x="128" y="558" type="curve"/>
      <point x="194" y="514"/>
      <point x="432" y="0"/>
    </contour>
  </outline>
</glyph>
<glyph name="komilje-cy.sc" format="1">
  <advance width="1952"/>
  <outline>
    <contour>
      <point x="843" y="-144" type="move" name="btm"/>
    </contour>
    <contour>
      <point x="659" y="1444" type="move" name="top"/>
    </contour>
    <contour>
      <point x="1362" y="442" type="curve" smooth="yes"/>
      <point x="1361" y="1225" type="line"/>
      <point x="1488" y="1257" type="line"/>
      <point x="1487" y="1292" type="line"/>
      <point x="428" y="1292" type="line"/>
      <point x="428" y="1257" type="line"/>
      <point x="574" y="1222" type="line"/>
      <point x="571" y="1081" type="line" smooth="yes"/>
      <point x="559" y="674"/>
      <point x="523" y="429"/>
      <point x="459" y="315" type="curve" smooth="yes"/>
      <point x="423" y="259"/>
      <point x="368" y="226"/>
      <point x="286" y="226" type="curve" smooth="yes"/>
      <point x="234" y="226"/>
      <point x="195" y="231"/>
      <point x="166" y="237" type="curve"/>
      <point x="159" y="1" type="line"/>
      <point x="192" y="-13"/>
      <point x="244" y="-26"/>
      <point x="306" y="-26" type="curve" smooth="yes"/>
      <point x="451" y="-26"/>
      <point x="535" y="54"/>
      <point x="587" y="218" type="curve" smooth="yes"/>
      <point x="646" y="388"/>
      <point x="657" y="665"/>
      <point x="664" y="1058" type="curve" smooth="yes"/>
      <point x="666" y="1221" type="line"/>
      <point x="1004" y="1221" type="line"/>
      <point x="1005" y="341" type="line" smooth="yes"/>
      <point x="1005" y="105"/>
      <point x="1159" y="-20"/>
      <point x="1467" y="-20" type="curve" smooth="yes"/>
      <point x="1757" y="-20"/>
      <point x="1918" y="104"/>
      <point x="1912" y="366" type="curve" smooth="yes"/>
      <point x="1905" y="588" type="line"/>
      <point x="1610" y="588" type="line"/>
      <point x="1615" y="345" type="line" smooth="yes"/>
      <point x="1620" y="139"/>
      <point x="1605" y="38"/>
      <point x="1483" y="38" type="curve" smooth="yes"/>
      <point x="1359" y="38"/>
      <point x="1360" y="236"/>
    </contour>
  </outline>
</glyph>
<glyph name="kominje-cy.sc" format="1">
  <advance width="1921"/>
  <outline>
    <contour>
      <point x="1323" y="442" type="curve" smooth="yes"/>
      <point x="1323" y="1225" type="line"/>
      <point x="1450" y="1257" type="line"/>
      <point x="1449" y="1292" type="line"/>
      <point x="829" y="1292" type="line"/>
      <point x="829" y="1257" type="line"/>
      <point x="966" y="1225" type="line"/>
      <point x="966" y="686" type="line"/>
      <point x="480" y="686" type="line"/>
      <point x="480" y="1225" type="line"/>
      <point x="628" y="1257" type="line"/>
      <point x="627" y="1292" type="line"/>
      <point x="-2" y="1292" type="line"/>
      <point x="-2" y="1257" type="line"/>
      <point x="124" y="1225" type="line"/>
      <point x="123" y="67" type="line"/>
      <point x="-4" y="35" type="line"/>
      <point x="-3" y="0" type="line"/>
      <point x="619" y="0" type="line"/>
      <point x="619" y="35" type="line"/>
      <point x="480" y="67" type="line"/>
      <point x="480" y="621" type="line"/>
      <point x="966" y="621" type="line"/>
      <point x="966" y="341" type="line" smooth="yes"/>
      <point x="967" y="105"/>
      <point x="1120" y="-20"/>
      <point x="1428" y="-20" type="curve" smooth="yes"/>
      <point x="1719" y="-20"/>
      <point x="1879" y="104"/>
      <point x="1872" y="366" type="curve" smooth="yes"/>
      <point x="1867" y="588" type="line"/>
      <point x="1572" y="588" type="line"/>
      <point x="1577" y="345" type="line" smooth="yes"/>
      <point x="1581" y="139"/>
      <point x="1566" y="38"/>
      <point x="1444" y="38" type="curve" smooth="yes"/>
      <point x="1319" y="38"/>
      <point x="1323" y="236"/>
    </contour>
  </outline>
</glyph>
<glyph name="komisje-cy.sc" format="1">
  <advance width="1260"/>
  <outline>
    <contour>
      <point x="1241" y="639" type="curve"/>
      <point x="740" y="639" type="line"/>
      <point x="740" y="604" type="line"/>
      <point x="921" y="565" type="line"/>
      <point x="922" y="485" type="line" smooth="yes"/>
      <point x="930" y="155"/>
      <point x="890" y="40"/>
      <point x="726" y="40" type="curve" smooth="yes"/>
      <point x="512" y="40"/>
      <point x="443" y="269"/>
      <point x="413" y="451" type="curve" smooth="yes"/>
      <point x="352" y="861"/>
      <point x="413" y="1251"/>
      <point x="704" y="1251" type="curve" smooth="yes"/>
      <point x="767" y="1251"/>
      <point x="824" y="1242"/>
      <point x="856" y="1226" type="curve"/>
      <point x="933" y="865" type="line"/>
      <point x="1138" y="865" type="line"/>
      <point x="1144" y="1261" type="line"/>
      <point x="1021" y="1261"/>
      <point x="953" y="1310"/>
      <point x="712" y="1310" type="curve" smooth="yes"/>
      <point x="229" y="1310"/>
      <point x="-37" y="1000"/>
      <point x="30" y="560" type="curve" smooth="yes"/>
      <point x="83" y="200"/>
      <point x="310" y="-19"/>
      <point x="700" y="-19" type="curve" smooth="yes"/>
      <point x="1019" y="-19"/>
      <point x="1235" y="130"/>
      <point x="1242" y="430" type="curve" smooth="yes"/>
      <point x="1243" y="494"/>
      <point x="1244" y="572"/>
    </contour>
  </outline>
</glyph>
<glyph name="komitje-cy.sc" format="1">
  <advance width="1485"/>
  <outline>
    <contour>
      <point x="721" y="-144" type="move" name="btm"/>
    </contour>
    <contour>
      <point x="457" y="1444" type="move" name="top"/>
    </contour>
    <contour>
      <point x="833" y="442" type="curve" smooth="yes"/>
      <point x="833" y="1242" type="line"/>
      <point x="1036" y="1233" type="line"/>
      <point x="1166" y="796" type="line"/>
      <point x="1310" y="796" type="line"/>
      <point x="1295" y="1292" type="line"/>
      <point x="-4" y="1292" type="line"/>
      <point x="-26" y="796" type="line"/>
      <point x="137" y="796" type="line"/>
      <point x="264" y="1233" type="line"/>
      <point x="476" y="1242" type="line"/>
      <point x="476" y="351" type="line" smooth="yes"/>
      <point x="476" y="87"/>
      <point x="669" y="-20"/>
      <point x="956" y="-20" type="curve" smooth="yes"/>
      <point x="1259" y="-20"/>
      <point x="1450" y="88"/>
      <point x="1443" y="376" type="curve" smooth="yes"/>
      <point x="1438" y="537" type="line"/>
      <point x="1119" y="537" type="line"/>
      <point x="1122" y="355" type="line" smooth="yes"/>
      <point x="1128" y="129"/>
      <point x="1088" y="38"/>
      <point x="972" y="38" type="curve" smooth="yes"/>
      <point x="847" y="38"/>
      <point x="832" y="241"/>
    </contour>
  </outline>
</glyph>
<glyph name="komizje-cy.sc" format="1">
  <advance width="1402"/>
  <outline>
    <contour>
      <point x="1135" y="552" type="line"/>
      <point x="1140" y="347" type="line" smooth="yes"/>
      <point x="1145" y="141"/>
      <point x="1124" y="40"/>
      <point x="1002" y="40" type="curve" smooth="yes"/>
      <point x="897" y="40"/>
      <point x="816" y="189"/>
      <point x="727" y="317" type="curve" smooth="yes"/>
      <point x="620" y="486"/>
      <point x="557" y="555"/>
      <point x="506" y="596" type="curve"/>
      <point x="740" y="663"/>
      <point x="833" y="776"/>
      <point x="802" y="977" type="curve" smooth="yes"/>
      <point x="764" y="1237"/>
      <point x="494" y="1306"/>
      <point x="209" y="1306" type="curve" smooth="yes"/>
      <point x="120" y="1306"/>
      <point x="49" y="1301"/>
      <point x="2" y="1292" type="curve"/>
      <point x="-6" y="1222" type="line"/>
      <point x="35" y="1234"/>
      <point x="89" y="1240"/>
      <point x="151" y="1240" type="curve" smooth="yes"/>
      <point x="344" y="1240"/>
      <point x="439" y="1151"/>
      <point x="465" y="978" type="curve" smooth="yes"/>
      <point x="493" y="800"/>
      <point x="417" y="665"/>
      <point x="217" y="665" type="curve" smooth="yes"/>
      <point x="170" y="665"/>
      <point x="49" y="667"/>
      <point x="26" y="669" type="curve"/>
      <point x="19" y="592" type="line"/>
      <point x="87" y="592"/>
      <point x="163" y="592"/>
      <point x="255" y="594" type="curve"/>
      <point x="298" y="547"/>
      <point x="398" y="337"/>
      <point x="517" y="178" type="curve" smooth="yes"/>
      <point x="612" y="52"/>
      <point x="745" y="-18"/>
      <point x="983" y="-18" type="curve" smooth="yes"/>
      <point x="1274" y="-18"/>
      <point x="1445" y="106"/>
      <point x="1436" y="368" type="curve" smooth="yes"/>
      <point x="1431" y="552" type="line"/>
    </contour>
  </outline>
</glyph>
<glyph name="lje-cy.sc" format="1">
  <advance width="2093"/>
  <outline>
    <contour>
      <point x="733" y="-144" type="move" name="btm"/>
    </contour>
    <contour>
      <point x="738" y="1444" type="move" name="top"/>
    </contour>
    <contour>
      <point x="1330" y="754" type="curve"/>
      <point x="1331" y="1225" type="line"/>
      <point x="1458" y="1257" type="line"/>
      <point x="1457" y="1292" type="line"/>
      <point x="399" y="1292" type="line"/>
      <point x="399" y="1257" type="line"/>
      <point x="545" y="1222" type="line"/>
      <point x="541" y="1081" type="line" smooth="yes"/>
      <point x="530" y="674"/>
      <point x="494" y="429"/>
      <point x="429" y="315" type="curve" smooth="yes"/>
      <point x="394" y="259"/>
      <point x="339" y="226"/>
      <point x="257" y="226" type="curve" smooth="yes"/>
      <point x="204" y="226"/>
      <point x="165" y="231"/>
      <point x="137" y="237" type="curve"/>
      <point x="129" y="1" type="line"/>
      <point x="162" y="-13"/>
      <point x="215" y="-26"/>
      <point x="276" y="-26" type="curve" smooth="yes"/>
      <point x="421" y="-26"/>
      <point x="506" y="54"/>
      <point x="558" y="218" type="curve" smooth="yes"/>
      <point x="616" y="388"/>
      <point x="627" y="665"/>
      <point x="634" y="1058" type="curve" smooth="yes"/>
      <point x="637" y="1221" type="line"/>
      <point x="975" y="1221" type="line"/>
      <point x="974" y="67" type="line"/>
      <point x="845" y="35" type="line"/>
      <point x="846" y="0" type="line"/>
      <point x="1082" y="0" type="line" smooth="yes"/>
      <point x="1218" y="0"/>
      <point x="1368" y="-18"/>
      <point x="1498" y="-18" type="curve" smooth="yes"/>
      <point x="1848" y="-18"/>
      <point x="2140" y="93"/>
      <point x="2092" y="413" type="curve" smooth="yes"/>
      <point x="2052" y="685"/>
      <point x="1805" y="772"/>
      <point x="1509" y="772" type="curve" smooth="yes"/>
      <point x="1439" y="772"/>
      <point x="1374" y="764"/>
    </contour>
    <contour>
      <point x="1331" y="63" type="curve"/>
      <point x="1331" y="691" type="line"/>
      <point x="1359" y="697"/>
      <point x="1403" y="701"/>
      <point x="1437" y="701" type="curve" smooth="yes"/>
      <point x="1623" y="701"/>
      <point x="1695" y="589"/>
      <point x="1720" y="427" type="curve" smooth="yes"/>
      <point x="1750" y="242"/>
      <point x="1699" y="40"/>
      <point x="1486" y="40" type="curve" smooth="yes"/>
      <point x="1409" y="40"/>
      <point x="1360" y="53"/>
    </contour>
  </outline>
</glyph>
<glyph name="nje-cy.sc" format="1">
  <advance width="2049"/>
  <outline>
    <contour>
      <point x="609" y="-144" type="move" name="btm"/>
    </contour>
    <contour>
      <point x="343" y="1444" type="move" name="top"/>
    </contour>
    <contour>
      <point x="1258" y="754" type="curve"/>
      <point x="1258" y="1225" type="line"/>
      <point x="1397" y="1257" type="line"/>
      <point x="1397" y="1292" type="line"/>
      <point x="765" y="1292" type="line"/>
      <point x="765" y="1257" type="line"/>
      <point x="902" y="1225" type="line"/>
      <point x="901" y="686" type="line"/>
      <point x="416" y="686" type="line"/>
      <point x="417" y="1225" type="line"/>
      <point x="564" y="1257" type="line"/>
      <point x="564" y="1292" type="line"/>
      <point x="-66" y="1292" type="line"/>
      <point x="-66" y="1257" type="line"/>
      <point x="60" y="1225" type="line"/>
      <point x="59" y="67" type="line"/>
      <point x="-68" y="35" type="line"/>
      <point x="-67" y="0" type="line"/>
      <point x="555" y="0" type="line"/>
      <point x="555" y="35" type="line"/>
      <point x="416" y="67" type="line"/>
      <point x="416" y="621" type="line"/>
      <point x="901" y="621" type="line"/>
      <point x="901" y="67" type="line"/>
      <point x="774" y="35" type="line"/>
      <point x="775" y="0" type="line"/>
      <point x="1008" y="0" type="line" smooth="yes"/>
      <point x="1145" y="0"/>
      <point x="1295" y="-18"/>
      <point x="1425" y="-18" type="curve" smooth="yes"/>
      <point x="1776" y="-18"/>
      <point x="2068" y="93"/>
      <point x="2020" y="413" type="curve" smooth="yes"/>
      <point x="1979" y="685"/>
      <point x="1732" y="772"/>
      <point x="1436" y="772" type="curve" smooth="yes"/>
      <point x="1366" y="772"/>
      <point x="1302" y="764"/>
    </contour>
    <contour>
      <point x="1258" y="63" type="curve"/>
      <point x="1259" y="691" type="line"/>
      <point x="1287" y="697"/>
      <point x="1330" y="701"/>
      <point x="1363" y="701" type="curve" smooth="yes"/>
      <point x="1549" y="701"/>
      <point x="1622" y="589"/>
      <point x="1647" y="427" type="curve" smooth="yes"/>
      <point x="1676" y="242"/>
      <point x="1627" y="40"/>
      <point x="1414" y="40" type="curve" smooth="yes"/>
      <point x="1336" y="40"/>
      <point x="1287" y="53"/>
    </contour>
  </outline>
</glyph>
<glyph name="pe-cy.sc" format="1">
  <advance width="1482"/>
  <outline>
    <contour>
      <point x="769" y="-144" type="move" name="btm"/>
    </contour>
    <contour>
      <point x="482" y="1444" type="move" name="top"/>
    </contour>
    <contour>
      <point x="0" y="1292" type="line"/>
      <point x="-1" y="1257" type="line"/>
      <point x="126" y="1225" type="line"/>
      <point x="124" y="67" type="line"/>
      <point x="-2" y="35" type="line"/>
      <point x="-2" y="0" type="line"/>
      <point x="620" y="0" type="line"/>
      <point x="621" y="35" type="line"/>
      <point x="481" y="67" type="line"/>
      <point x="482" y="1221" type="line"/>
      <point x="928" y="1221" type="line"/>
      <point x="927" y="67" type="line"/>
      <point x="789" y="35" type="line"/>
      <point x="789" y="0" type="line"/>
      <point x="1411" y="0" type="line"/>
      <point x="1412" y="35" type="line"/>
      <point x="1283" y="67" type="line"/>
      <point x="1285" y="1225" type="line"/>
      <point x="1411" y="1257" type="line"/>
      <point x="1411" y="1292" type="line"/>
    </contour>
  </outline>
</glyph>
<glyph name="pedescender-cy.sc" format="1">
  <advance width="1513"/>
  <outline>
    <contour>
      <point x="704" y="-144" type="move" name="btm"/>
    </contour>
    <contour>
      <point x="416" y="1444" type="move" name="top"/>
    </contour>
    <contour>
      <point x="1469" y="69" type="curve"/>
      <point x="1250" y="70" type="line"/>
      <point x="925" y="69" type="line"/>
      <point x="928" y="0" type="line"/>
      <point x="1212" y="0" type="line"/>
      <point x="1225" y="-81"/>
      <point x="1239" y="-270"/>
      <point x="1242" y="-370" type="curve"/>
      <point x="1389" y="-370" type="line"/>
      <point x="1419" y="-257"/>
      <point x="1461" y="-53"/>
    </contour>
    <contour>
      <point x="-28" y="1292" type="line"/>
      <point x="-28" y="1257" type="line"/>
      <point x="98" y="1225" type="line"/>
      <point x="97" y="67" type="line"/>
      <point x="-30" y="35" type="line"/>
      <point x="-29" y="0" type="line"/>
      <point x="593" y="0" type="line"/>
      <point x="593" y="35" type="line"/>
      <point x="454" y="67" type="line"/>
      <point x="454" y="1221" type="line"/>
      <point x="901" y="1221" type="line"/>
      <point x="899" y="67" type="line"/>
      <point x="761" y="35" type="line"/>
      <point x="762" y="0" type="line"/>
      <point x="1384" y="0" type="line"/>
      <point x="1384" y="35" type="line"/>
      <point x="1256" y="67" type="line"/>
      <point x="1257" y="1225" type="line"/>
      <point x="1384" y="1257" type="line"/>
      <point x="1383" y="1292" type="line"/>
    </contour>
  </outline>
</glyph>
<glyph name="pemiddlehook-cy.sc" format="1">
  <advance width="2096"/>
  <outline>
    <contour>
      <point x="733" y="-144" type="move" name="btm"/>
    </contour>
    <contour>
      <point x="445" y="1444" type="move" name="top"/>
    </contour>
    <contour>
      <point x="1260" y="658" type="curve"/>
      <point x="1261" y="1225" type="line"/>
      <point x="1392" y="1257" type="line"/>
      <point x="1391" y="1292" type="line"/>
      <point x="-24" y="1292" type="line"/>
      <point x="-24" y="1257" type="line"/>
      <point x="102" y="1225" type="line"/>
      <point x="102" y="67" type="line"/>
      <point x="-26" y="35" type="line"/>
      <point x="-25" y="0" type="line"/>
      <point x="597" y="0" type="line"/>
      <point x="597" y="35" type="line"/>
      <point x="458" y="67" type="line"/>
      <point x="459" y="1221" type="line"/>
      <point x="905" y="1221" type="line"/>
      <point x="904" y="67" type="line"/>
      <point x="776" y="35" type="line"/>
      <point x="777" y="0" type="line"/>
      <point x="1462" y="0" type="line"/>
      <point x="1462" y="35" type="line"/>
      <point x="1260" y="67" type="line"/>
      <point x="1260" y="584" type="line"/>
      <point x="1314" y="617"/>
      <point x="1385" y="638"/>
      <point x="1467" y="638" type="curve" smooth="yes"/>
      <point x="1622" y="638"/>
      <point x="1670" y="512"/>
      <point x="1692" y="377" type="curve" smooth="yes"/>
      <point x="1737" y="91"/>
      <point x="1674" y="-243"/>
      <point x="1361" y="-243" type="curve" smooth="yes"/>
      <point x="1341" y="-243"/>
      <point x="1319" y="-242"/>
      <point x="1301" y="-239" type="curve"/>
      <point x="1302" y="-306" type="line"/>
      <point x="1323" y="-310"/>
      <point x="1357" y="-312"/>
      <point x="1390" y="-312" type="curve" smooth="yes"/>
      <point x="1831" y="-312"/>
      <point x="2098" y="-37"/>
      <point x="2038" y="373" type="curve" smooth="yes"/>
      <point x="2001" y="616"/>
      <point x="1864" y="740"/>
      <point x="1598" y="740" type="curve" smooth="yes"/>
      <point x="1472" y="740"/>
      <point x="1347" y="711"/>
    </contour>
  </outline>
</glyph>
<glyph name="reversedze-cy.sc" format="1">
  <advance width="1186"/>
  <outline>
    <contour>
      <point x="656" y="625" type="curve"/>
      <point x="802" y="609" type="line"/>
      <point x="803" y="715" type="line"/>
      <point x="671" y="719" type="line"/>
      <point x="529" y="727"/>
      <point x="445" y="825"/>
      <point x="426" y="945" type="curve" smooth="yes"/>
      <point x="399" y="1119"/>
      <point x="440" y="1251"/>
      <point x="630" y="1251" type="curve" smooth="yes"/>
      <point x="712" y="1251"/>
      <point x="793" y="1228"/>
      <point x="824" y="1126" type="curve"/>
      <point x="876" y="909" type="line"/>
      <point x="1065" y="908" type="line"/>
      <point x="1079" y="1257" type="line"/>
      <point x="934" y="1259"/>
      <point x="786" y="1310"/>
      <point x="593" y="1310" type="curve" smooth="yes"/>
      <point x="299" y="1310"/>
      <point x="55" y="1244"/>
      <point x="95" y="975" type="curve" smooth="yes"/>
      <point x="118" y="818"/>
      <point x="241" y="725"/>
      <point x="507" y="686" type="curve"/>
      <point x="167" y="684"/>
      <point x="52" y="551"/>
      <point x="83" y="341" type="curve" smooth="yes"/>
      <point x="123" y="66"/>
      <point x="360" y="-18"/>
      <point x="656" y="-18" type="curve" smooth="yes"/>
      <point x="871" y="-18"/>
      <point x="1045" y="43"/>
      <point x="1121" y="79" type="curve"/>
      <point x="1115" y="412" type="line"/>
      <point x="934" y="412" type="line"/>
      <point x="920" y="329"/>
      <point x="907" y="179"/>
      <point x="880" y="100" type="curve"/>
      <point x="841" y="67"/>
      <point x="771" y="41"/>
      <point x="681" y="41" type="curve" smooth="yes"/>
      <point x="526" y="41"/>
      <point x="459" y="168"/>
      <point x="438" y="302" type="curve" smooth="yes"/>
      <point x="411" y="476"/>
      <point x="458" y="625"/>
    </contour>
  </outline>
</glyph>
<glyph name="semisoftsign-cy.sc" format="1">
  <advance width="1262"/>
  <outline>
    <contour>
      <point x="444" y="1444" type="move" name="top"/>
    </contour>
    <contour>
      <point x="474" y="754" type="curve"/>
      <point x="474" y="942" type="line"/>
      <point x="795" y="942" type="line"/>
      <point x="794" y="1000" type="line"/>
      <point x="474" y="1000" type="line"/>
      <point x="474" y="1225" type="line"/>
      <point x="614" y="1257" type="line"/>
      <point x="613" y="1292" type="line"/>
      <point x="-8" y="1292" type="line"/>
      <point x="-8" y="1257" type="line"/>
      <point x="118" y="1225" type="line"/>
      <point x="118" y="1000" type="line"/>
      <point x="-32" y="1000" type="line"/>
      <point x="-33" y="942" type="line"/>
      <point x="118" y="942" type="line"/>
      <point x="117" y="67" type="line"/>
      <point x="-10" y="35" type="line"/>
      <point x="-9" y="0" type="line"/>
      <point x="225" y="0" type="line" smooth="yes"/>
      <point x="361" y="0"/>
      <point x="512" y="-18"/>
      <point x="642" y="-18" type="curve" smooth="yes"/>
      <point x="992" y="-18"/>
      <point x="1284" y="93"/>
      <point x="1236" y="413" type="curve" smooth="yes"/>
      <point x="1195" y="685"/>
      <point x="949" y="772"/>
      <point x="653" y="772" type="curve" smooth="yes"/>
      <point x="582" y="772"/>
      <point x="518" y="764"/>
    </contour>
    <contour>
      <point x="475" y="63" type="curve"/>
      <point x="475" y="691" type="line"/>
      <point x="503" y="697"/>
      <point x="546" y="701"/>
      <point x="580" y="701" type="curve" smooth="yes"/>
      <point x="766" y="701"/>
      <point x="839" y="589"/>
      <point x="864" y="427" type="curve" smooth="yes"/>
      <point x="893" y="242"/>
      <point x="843" y="40"/>
      <point x="630" y="40" type="curve" smooth="yes"/>
      <point x="553" y="40"/>
      <point x="504" y="53"/>
    </contour>
  </outline>
</glyph>
<glyph name="sha-cy.sc" format="1">
  <advance width="2191"/>
  <outline>
    <contour>
      <point x="721" y="-144" type="move" name="btm"/>
    </contour>
    <contour>
      <point x="747" y="1444" type="move" name="top"/>
    </contour>
    <contour>
      <point x="1493" y="1292" type="line"/>
      <point x="1492" y="1257" type="line"/>
      <point x="1638" y="1225" type="line"/>
      <point x="1636" y="71" type="line"/>
      <point x="1237" y="71" type="line"/>
      <point x="1238" y="1225" type="line"/>
      <point x="1368" y="1257" type="line"/>
      <point x="1369" y="1292" type="line"/>
      <point x="737" y="1292" type="line"/>
      <point x="736" y="1257" type="line"/>
      <point x="882" y="1225" type="line"/>
      <point x="880" y="71" type="line"/>
      <point x="482" y="71" type="line"/>
      <point x="483" y="1225" type="line"/>
      <point x="613" y="1257" type="line"/>
      <point x="613" y="1292" type="line"/>
      <point x="0" y="1292" type="line"/>
      <point x="-1" y="1257" type="line"/>
      <point x="126" y="1225" type="line"/>
      <point x="125" y="67" type="line"/>
      <point x="-2" y="35" type="line"/>
      <point x="-2" y="0" type="line"/>
      <point x="2120" y="0" type="line"/>
      <point x="2121" y="35" type="line"/>
      <point x="1992" y="67" type="line"/>
      <point x="1994" y="1225" type="line"/>
      <point x="2120" y="1257" type="line"/>
      <point x="2121" y="1292" type="line"/>
    </contour>
  </outline>
</glyph>
<glyph name="shcha-cy.sc" format="1">
  <advance width="2191"/>
  <outline>
    <contour>
      <point x="687" y="-144" type="move" name="btm"/>
    </contour>
    <contour>
      <point x="705" y="1444" type="move" name="top"/>
    </contour>
    <contour>
      <point x="2173" y="71" type="curve"/>
      <point x="1959" y="71" type="line"/>
      <point x="1960" y="1225" type="line"/>
      <point x="2087" y="1257" type="line"/>
      <point x="2086" y="1292" type="line"/>
      <point x="1458" y="1292" type="line"/>
      <point x="1458" y="1257" type="line"/>
      <point x="1603" y="1225" type="line"/>
      <point x="1602" y="71" type="line"/>
      <point x="1202" y="71" type="line"/>
      <point x="1204" y="1225" type="line"/>
      <point x="1335" y="1257" type="line"/>
      <point x="1334" y="1292" type="line"/>
      <point x="703" y="1292" type="line"/>
      <point x="703" y="1257" type="line"/>
      <point x="848" y="1225" type="line"/>
      <point x="846" y="71" type="line"/>
      <point x="448" y="71" type="line"/>
      <point x="448" y="1225" type="line"/>
      <point x="579" y="1257" type="line"/>
      <point x="578" y="1292" type="line"/>
      <point x="-34" y="1292" type="line"/>
      <point x="-35" y="1257" type="line"/>
      <point x="92" y="1225" type="line"/>
      <point x="91" y="67" type="line"/>
      <point x="-36" y="35" type="line"/>
      <point x="-35" y="0" type="line"/>
      <point x="1916" y="0" type="line"/>
      <point x="1930" y="-81"/>
      <point x="1944" y="-270"/>
      <point x="1946" y="-370" type="curve"/>
      <point x="2093" y="-370" type="line"/>
      <point x="2123" y="-257"/>
      <point x="2165" y="-51"/>
    </contour>
  </outline>
</glyph>
<glyph name="shha-cy.sc" format="1">
  <advance width="1361"/>
  <outline>
    <contour>
      <point x="313" y="1444" type="move" name="top"/>
    </contour>
    <contour>
      <point x="741" y="0" type="move" name="bottom"/>
    </contour>
    <contour>
      <point x="482" y="785" type="curve"/>
      <point x="483" y="1225" type="line"/>
      <point x="629" y="1257" type="line"/>
      <point x="629" y="1292" type="line"/>
      <point x="0" y="1292" type="line"/>
      <point x="-1" y="1257" type="line"/>
      <point x="126" y="1225" type="line"/>
      <point x="124" y="67" type="line"/>
      <point x="-2" y="35" type="line"/>
      <point x="-2" y="0" type="line"/>
      <point x="606" y="0" type="line"/>
      <point x="607" y="35" type="line"/>
      <point x="481" y="67" type="line"/>
      <point x="481" y="719" type="line"/>
      <point x="538" y="740"/>
      <point x="606" y="752"/>
      <point x="671" y="752" type="curve" smooth="yes"/>
      <point x="907" y="752"/>
      <point x="912" y="561"/>
      <point x="911" y="351" type="curve" smooth="yes"/>
      <point x="910" y="67" type="line"/>
      <point x="787" y="35" type="line"/>
      <point x="787" y="0" type="line"/>
      <point x="1393" y="0" type="line"/>
      <point x="1394" y="35" type="line"/>
      <point x="1267" y="67" type="line"/>
      <point x="1268" y="437" type="line" smooth="yes"/>
      <point x="1268" y="727"/>
      <point x="1093" y="831"/>
      <point x="775" y="831" type="curve" smooth="yes"/>
      <point x="650" y="831"/>
      <point x="549" y="809"/>
    </contour>
  </outline>
</glyph>
<glyph name="shhadescender-cy.sc" format="1">
  <advance width="1514"/>
  <outline>
    <contour>
      <point x="265" y="1444" type="move" name="top"/>
    </contour>
    <contour>
      <point x="700" y="0" type="move" name="bottom"/>
    </contour>
    <contour>
      <point x="1479" y="69" type="curve"/>
      <point x="1155" y="69" type="line"/>
      <point x="929" y="69" type="line"/>
      <point x="930" y="0" type="line"/>
      <point x="1221" y="0" type="line"/>
      <point x="1235" y="-81"/>
      <point x="1249" y="-270"/>
      <point x="1251" y="-370" type="curve"/>
      <point x="1399" y="-370" type="line"/>
      <point x="1429" y="-257"/>
      <point x="1470" y="-53"/>
    </contour>
    <contour>
      <point x="462" y="785" type="curve"/>
      <point x="462" y="1225" type="line"/>
      <point x="609" y="1257" type="line"/>
      <point x="608" y="1292" type="line"/>
      <point x="-21" y="1292" type="line"/>
      <point x="-21" y="1257" type="line"/>
      <point x="105" y="1225" type="line"/>
      <point x="104" y="67" type="line"/>
      <point x="-23" y="35" type="line"/>
      <point x="-22" y="0" type="line"/>
      <point x="586" y="0" type="line"/>
      <point x="586" y="35" type="line"/>
      <point x="461" y="67" type="line"/>
      <point x="461" y="719" type="line"/>
      <point x="518" y="740"/>
      <point x="585" y="752"/>
      <point x="651" y="752" type="curve" smooth="yes"/>
      <point x="887" y="752"/>
      <point x="891" y="561"/>
      <point x="891" y="351" type="curve" smooth="yes"/>
      <point x="890" y="67" type="line"/>
      <point x="766" y="35" type="line"/>
      <point x="767" y="0" type="line"/>
      <point x="1373" y="0" type="line"/>
      <point x="1373" y="35" type="line"/>
      <point x="1247" y="67" type="line"/>
      <point x="1247" y="437" type="line" smooth="yes"/>
      <point x="1248" y="727"/>
      <point x="1072" y="831"/>
      <point x="754" y="831" type="curve" smooth="yes"/>
      <point x="629" y="831"/>
      <point x="528" y="809"/>
    </contour>
  </outline>
</glyph>
<glyph name="tedescender-cy.sc" format="1">
  <advance width="1318"/>
  <outline>
    <contour>
      <point x="992" y="69" type="curve"/>
      <point x="772" y="70" type="line"/>
      <point x="770" y="1242" type="line"/>
      <point x="930" y="1236" type="line"/>
      <point x="1069" y="862" type="line"/>
      <point x="1213" y="862" type="line"/>
      <point x="1190" y="1292" type="line"/>
      <point x="-25" y="1292" type="line"/>
      <point x="-53" y="862" type="line"/>
      <point x="112" y="862" type="line"/>
      <point x="240" y="1236" type="line"/>
      <point x="416" y="1242" type="line"/>
      <point x="414" y="67" type="line"/>
      <point x="198" y="35" type="line"/>
      <point x="199" y="0" type="line"/>
      <point x="735" y="0" type="line"/>
      <point x="748" y="-81"/>
      <point x="762" y="-270"/>
      <point x="765" y="-370" type="curve"/>
      <point x="912" y="-370" type="line"/>
      <point x="942" y="-257"/>
      <point x="984" y="-53"/>
    </contour>
  </outline>
</glyph>
<glyph name="tetse-cy.sc" format="1">
  <advance width="2080"/>
  <outline>
    <contour>
      <point x="842" y="-144" type="move" name="btm"/>
    </contour>
    <contour>
      <point x="582" y="1444" type="move" name="top"/>
    </contour>
    <contour>
      <point x="1966" y="69" type="curve"/>
      <point x="1752" y="70" type="line"/>
      <point x="1752" y="1225" type="line"/>
      <point x="1880" y="1257" type="line"/>
      <point x="1879" y="1292" type="line"/>
      <point x="1252" y="1292" type="line"/>
      <point x="1252" y="1257" type="line"/>
      <point x="1397" y="1225" type="line"/>
      <point x="1395" y="71" type="line"/>
      <point x="726" y="71" type="line"/>
      <point x="726" y="1242" type="line"/>
      <point x="876" y="1236" type="line"/>
      <point x="1015" y="862" type="line"/>
      <point x="1159" y="862" type="line"/>
      <point x="1136" y="1292" type="line"/>
      <point x="-60" y="1292" type="line"/>
      <point x="-89" y="862" type="line"/>
      <point x="76" y="862" type="line"/>
      <point x="205" y="1236" type="line"/>
      <point x="372" y="1242" type="line"/>
      <point x="370" y="67" type="line"/>
      <point x="154" y="35" type="line"/>
      <point x="155" y="0" type="line"/>
      <point x="1709" y="0" type="line"/>
      <point x="1722" y="-81"/>
      <point x="1736" y="-270"/>
      <point x="1739" y="-370" type="curve"/>
      <point x="1886" y="-370" type="line"/>
      <point x="1916" y="-257"/>
      <point x="1958" y="-53"/>
    </contour>
  </outline>
</glyph>
<glyph name="tse-cy.sc" format="1">
  <advance width="1502"/>
  <outline>
    <contour>
      <point x="663" y="1292" type="move" name="top"/>
    </contour>
    <contour>
      <point x="1459" y="69" type="curve"/>
      <point x="1244" y="70" type="line"/>
      <point x="1245" y="1225" type="line"/>
      <point x="1372" y="1257" type="line"/>
      <point x="1371" y="1292" type="line"/>
      <point x="747" y="1292" type="line"/>
      <point x="747" y="1257" type="line"/>
      <point x="888" y="1225" type="line"/>
      <point x="887" y="71" type="line"/>
      <point x="454" y="71" type="line"/>
      <point x="454" y="1225" type="line"/>
      <point x="590" y="1257" type="line"/>
      <point x="589" y="1292" type="line"/>
      <point x="-28" y="1292" type="line"/>
      <point x="-28" y="1257" type="line"/>
      <point x="98" y="1225" type="line"/>
      <point x="97" y="67" type="line"/>
      <point x="-30" y="35" type="line"/>
      <point x="-29" y="0" type="line"/>
      <point x="1201" y="0" type="line"/>
      <point x="1215" y="-81"/>
      <point x="1229" y="-270"/>
      <point x="1231" y="-370" type="curve"/>
      <point x="1379" y="-370" type="line"/>
      <point x="1409" y="-257"/>
      <point x="1450" y="-53"/>
    </contour>
  </outline>
</glyph>
<glyph name="tshe-cy.sc" format="1">
  <advance width="1729"/>
  <outline>
    <contour>
      <point x="551" y="-144" type="move" name="btm"/>
    </contour>
    <contour>
      <point x="508" y="1444" type="move" name="top"/>
    </contour>
    <contour>
      <point x="807" y="746" type="curve"/>
      <point x="807" y="1242" type="line"/>
      <point x="1019" y="1236" type="line"/>
      <point x="1135" y="918" type="line"/>
      <point x="1279" y="918" type="line"/>
      <point x="1280" y="1292" type="line"/>
      <point x="-47" y="1292" type="line"/>
      <point x="-47" y="918" type="line"/>
      <point x="116" y="918" type="line"/>
      <point x="217" y="1235" type="line"/>
      <point x="450" y="1242" type="line"/>
      <point x="450" y="67" type="line"/>
      <point x="324" y="35" type="line"/>
      <point x="323" y="0" type="line"/>
      <point x="931" y="0" type="line"/>
      <point x="933" y="35" type="line"/>
      <point x="806" y="67" type="line"/>
      <point x="807" y="680" type="line"/>
      <point x="863" y="701"/>
      <point x="932" y="713"/>
      <point x="997" y="713" type="curve" smooth="yes"/>
      <point x="1233" y="713"/>
      <point x="1237" y="522"/>
      <point x="1237" y="312" type="curve" smooth="yes"/>
      <point x="1236" y="67" type="line"/>
      <point x="1113" y="35" type="line"/>
      <point x="1113" y="0" type="line"/>
      <point x="1719" y="0" type="line"/>
      <point x="1720" y="35" type="line"/>
      <point x="1592" y="67" type="line"/>
      <point x="1593" y="398" type="line" smooth="yes"/>
      <point x="1594" y="688"/>
      <point x="1418" y="792"/>
      <point x="1100" y="792" type="curve" smooth="yes"/>
      <point x="975" y="792"/>
      <point x="874" y="770"/>
    </contour>
  </outline>
</glyph>
<glyph name="udieresis-cy.sc" format="1">
  <advance width="1374"/>
  <outline>
    <contour>
      <point x="829" y="1320" type="curve"/>
      <point x="926" y="1320"/>
      <point x="993" y="1417"/>
      <point x="993" y="1516" type="curve" smooth="yes"/>
      <point x="993" y="1606"/>
      <point x="942" y="1666"/>
      <point x="847" y="1666" type="curve" smooth="yes"/>
      <point x="748" y="1666"/>
      <point x="679" y="1577"/>
      <point x="679" y="1489" type="curve" smooth="yes"/>
      <point x="679" y="1388"/>
      <point x="732" y="1320"/>
    </contour>
    <contour>
      <point x="388" y="1320" type="curve"/>
      <point x="486" y="1320"/>
      <point x="556" y="1417"/>
      <point x="556" y="1516" type="curve" smooth="yes"/>
      <point x="556" y="1608"/>
      <point x="503" y="1666"/>
      <point x="406" y="1666" type="curve" smooth="yes"/>
      <point x="309" y="1666"/>
      <point x="241" y="1577"/>
      <point x="241" y="1489" type="curve" smooth="yes"/>
      <point x="241" y="1388"/>
      <point x="292" y="1320"/>
    </contour>
    <contour>
      <point x="401" y="-32" type="curve" smooth="yes"/>
      <point x="576" y="-32"/>
      <point x="667" y="61"/>
      <point x="765" y="314" type="curve" smooth="yes"/>
      <point x="1124" y="1222" type="line"/>
      <point x="1254" y="1256" type="line"/>
      <point x="1253" y="1292" type="line"/>
      <point x="834" y="1292" type="line"/>
      <point x="834" y="1256" type="line"/>
      <point x="1003" y="1222" type="line"/>
      <point x="815" y="678" type="line"/>
      <point x="730" y="415" type="line"/>
      <point x="792" y="496" type="line"/>
      <point x="698" y="675" type="line"/>
      <point x="412" y="1228" type="line"/>
      <point x="601" y="1256" type="line"/>
      <point x="601" y="1292" type="line"/>
      <point x="-54" y="1292" type="line"/>
      <point x="-54" y="1256" type="line"/>
      <point x="56" y="1228" type="line"/>
      <point x="657" y="194" type="line"/>
      <point x="635" y="255" type="line"/>
      <point x="630" y="232"/>
      <point x="594" y="204"/>
      <point x="445" y="204" type="curve" smooth="yes"/>
      <point x="363" y="204"/>
      <point x="281" y="216"/>
      <point x="198" y="236" type="curve"/>
      <point x="196" y="17" type="line"/>
      <point x="245" y="-5"/>
      <point x="318" y="-32"/>
    </contour>
  </outline>
</glyph>
<glyph name="uhungarumlaut-cy.sc" format="1">
  <advance width="1374"/>
  <outline>
    <contour>
      <point x="375" y="1309" type="line"/>
      <point x="499" y="1365"/>
      <point x="646" y="1497"/>
      <point x="739" y="1621" type="curve"/>
      <point x="536" y="1753" type="line"/>
      <point x="292" y="1362" type="line"/>
    </contour>
    <contour>
      <point x="770" y="1309" type="line"/>
      <point x="895" y="1365"/>
      <point x="1041" y="1497"/>
      <point x="1134" y="1621" type="curve"/>
      <point x="931" y="1753" type="line"/>
      <point x="687" y="1362" type="line"/>
    </contour>
    <contour>
      <point x="401" y="-32" type="curve" smooth="yes"/>
      <point x="576" y="-32"/>
      <point x="667" y="61"/>
      <point x="765" y="314" type="curve" smooth="yes"/>
      <point x="1124" y="1222" type="line"/>
      <point x="1254" y="1256" type="line"/>
      <point x="1253" y="1292" type="line"/>
      <point x="834" y="1292" type="line"/>
      <point x="834" y="1256" type="line"/>
      <point x="1003" y="1222" type="line"/>
      <point x="815" y="678" type="line"/>
      <point x="730" y="415" type="line"/>
      <point x="792" y="496" type="line"/>
      <point x="698" y="675" type="line"/>
      <point x="412" y="1228" type="line"/>
      <point x="601" y="1256" type="line"/>
      <point x="601" y="1292" type="line"/>
      <point x="-54" y="1292" type="line"/>
      <point x="-54" y="1256" type="line"/>
      <point x="56" y="1228" type="line"/>
      <point x="657" y="194" type="line"/>
      <point x="635" y="255" type="line"/>
      <point x="630" y="232"/>
      <point x="594" y="204"/>
      <point x="445" y="204" type="curve" smooth="yes"/>
      <point x="363" y="204"/>
      <point x="281" y="216"/>
      <point x="198" y="236" type="curve"/>
      <point x="196" y="17" type="line"/>
      <point x="245" y="-5"/>
      <point x="318" y="-32"/>
    </contour>
  </outline>
</glyph>
<glyph name="umacron-cy.sc" format="1">
  <advance width="1374"/>
  <outline>
    <contour>
      <point x="932" y="1525" type="line"/>
      <point x="303" y="1525" type="line"/>
      <point x="303" y="1340" type="line"/>
      <point x="932" y="1340" type="line"/>
    </contour>
    <contour>
      <point x="401" y="-32" type="curve" smooth="yes"/>
      <point x="576" y="-32"/>
      <point x="667" y="61"/>
      <point x="765" y="314" type="curve" smooth="yes"/>
      <point x="1124" y="1222" type="line"/>
      <point x="1254" y="1256" type="line"/>
      <point x="1253" y="1292" type="line"/>
      <point x="834" y="1292" type="line"/>
      <point x="834" y="1256" type="line"/>
      <point x="1003" y="1222" type="line"/>
      <point x="815" y="678" type="line"/>
      <point x="730" y="415" type="line"/>
      <point x="792" y="496" type="line"/>
      <point x="698" y="675" type="line"/>
      <point x="412" y="1228" type="line"/>
      <point x="601" y="1256" type="line"/>
      <point x="601" y="1292" type="line"/>
      <point x="-54" y="1292" type="line"/>
      <point x="-54" y="1256" type="line"/>
      <point x="56" y="1228" type="line"/>
      <point x="657" y="194" type="line"/>
      <point x="635" y="255" type="line"/>
      <point x="630" y="232"/>
      <point x="594" y="204"/>
      <point x="445" y="204" type="curve" smooth="yes"/>
      <point x="363" y="204"/>
      <point x="281" y="216"/>
      <point x="198" y="236" type="curve"/>
      <point x="196" y="17" type="line"/>
      <point x="245" y="-5"/>
      <point x="318" y="-32"/>
    </contour>
  </outline>
</glyph>
<glyph name="ushort-cy.sc" format="1">
  <advance width="1374"/>
  <outline>
    <contour>
      <point x="401" y="1656" type="curve" smooth="yes"/>
      <point x="231" y="1656" type="line"/>
      <point x="228" y="1638"/>
      <point x="227" y="1620"/>
      <point x="227" y="1602" type="curve" smooth="yes"/>
      <point x="227" y="1419"/>
      <point x="373" y="1300"/>
      <point x="618" y="1300" type="curve" smooth="yes"/>
      <point x="865" y="1300"/>
      <point x="1009" y="1419"/>
      <point x="1009" y="1602" type="curve" smooth="yes"/>
      <point x="1009" y="1620"/>
      <point x="1008" y="1638"/>
      <point x="1005" y="1656" type="curve"/>
      <point x="835" y="1656" type="line" smooth="yes"/>
      <point x="780" y="1656"/>
      <point x="770" y="1608"/>
      <point x="770" y="1531" type="curve" smooth="yes"/>
      <point x="770" y="1419"/>
      <point x="723" y="1350"/>
      <point x="619" y="1350" type="curve" smooth="yes"/>
      <point x="513" y="1350"/>
      <point x="466" y="1419"/>
      <point x="466" y="1531" type="curve" smooth="yes"/>
      <point x="466" y="1608"/>
      <point x="456" y="1656"/>
    </contour>
    <contour>
      <point x="401" y="-32" type="curve" smooth="yes"/>
      <point x="576" y="-32"/>
      <point x="667" y="61"/>
      <point x="765" y="314" type="curve" smooth="yes"/>
      <point x="1124" y="1222" type="line"/>
      <point x="1254" y="1256" type="line"/>
      <point x="1253" y="1292" type="line"/>
      <point x="834" y="1292" type="line"/>
      <point x="834" y="1256" type="line"/>
      <point x="1003" y="1222" type="line"/>
      <point x="815" y="678" type="line"/>
      <point x="730" y="415" type="line"/>
      <point x="792" y="496" type="line"/>
      <point x="698" y="675" type="line"/>
      <point x="412" y="1228" type="line"/>
      <point x="601" y="1256" type="line"/>
      <point x="601" y="1292" type="line"/>
      <point x="-54" y="1292" type="line"/>
      <point x="-54" y="1256" type="line"/>
      <point x="56" y="1228" type="line"/>
      <point x="657" y="194" type="line"/>
      <point x="635" y="255" type="line"/>
      <point x="630" y="232"/>
      <point x="594" y="204"/>
      <point x="445" y="204" type="curve" smooth="yes"/>
      <point x="363" y="204"/>
      <point x="281" y="216"/>
      <point x="198" y="236" type="curve"/>
      <point x="196" y="17" type="line"/>
      <point x="245" y="-5"/>
      <point x="318" y="-32"/>
    </contour>
  </outline>
</glyph>
<glyph name="yat-cy.sc" format="1">
  <advance width="1572"/>
  <outline>
    <contour>
      <point x="758" y="1444" type="move" name="top"/>
    </contour>
    <contour>
      <point x="768" y="673" type="curve"/>
      <point x="769" y="1046" type="line"/>
      <point x="1105" y="1030" type="line"/>
      <point x="1128" y="824" type="line"/>
      <point x="1283" y="824" type="line"/>
      <point x="1323" y="1101" type="line"/>
      <point x="769" y="1101" type="line"/>
      <point x="769" y="1225" type="line"/>
      <point x="908" y="1257" type="line"/>
      <point x="907" y="1292" type="line"/>
      <point x="286" y="1292" type="line"/>
      <point x="286" y="1257" type="line"/>
      <point x="412" y="1225" type="line"/>
      <point x="412" y="1101" type="line"/>
      <point x="-20" y="1101" type="line"/>
      <point x="-29" y="824" type="line"/>
      <point x="131" y="824" type="line"/>
      <point x="170" y="1035" type="line"/>
      <point x="412" y="1046" type="line"/>
      <point x="411" y="67" type="line"/>
      <point x="284" y="35" type="line"/>
      <point x="285" y="0" type="line"/>
      <point x="519" y="0" type="line" smooth="yes"/>
      <point x="655" y="0"/>
      <point x="806" y="-18"/>
      <point x="936" y="-18" type="curve" smooth="yes"/>
      <point x="1273" y="-18"/>
      <point x="1577" y="66"/>
      <point x="1530" y="372" type="curve" smooth="yes"/>
      <point x="1494" y="618"/>
      <point x="1237" y="691"/>
      <point x="966" y="691" type="curve" smooth="yes"/>
      <point x="889" y="691"/>
      <point x="814" y="683"/>
    </contour>
    <contour>
      <point x="769" y="63" type="curve"/>
      <point x="768" y="607" type="line"/>
      <point x="805" y="616"/>
      <point x="852" y="620"/>
      <point x="884" y="620" type="curve" smooth="yes"/>
      <point x="1065" y="620"/>
      <point x="1136" y="519"/>
      <point x="1162" y="363" type="curve" smooth="yes"/>
      <point x="1190" y="187"/>
      <point x="1129" y="40"/>
      <point x="924" y="40" type="curve" smooth="yes"/>
      <point x="847" y="40"/>
      <point x="798" y="53"/>
    </contour>
  </outline>
</glyph>
<glyph name="yeru-cy.sc" format="1">
  <advance width="2111"/>
  <outline>
    <contour>
      <point x="1222" y="1292" type="move" name="top"/>
    </contour>
    <contour>
      <point x="480" y="754" type="curve"/>
      <point x="480" y="1225" type="line"/>
      <point x="620" y="1257" type="line"/>
      <point x="619" y="1292" type="line"/>
      <point x="-2" y="1292" type="line"/>
      <point x="-2" y="1257" type="line"/>
      <point x="124" y="1225" type="line"/>
      <point x="123" y="67" type="line"/>
      <point x="-4" y="35" type="line"/>
      <point x="-3" y="0" type="line"/>
      <point x="231" y="0" type="line" smooth="yes"/>
      <point x="367" y="0"/>
      <point x="518" y="-18"/>
      <point x="648" y="-18" type="curve" smooth="yes"/>
      <point x="998" y="-18"/>
      <point x="1290" y="93"/>
      <point x="1242" y="413" type="curve" smooth="yes"/>
      <point x="1201" y="685"/>
      <point x="955" y="772"/>
      <point x="659" y="772" type="curve" smooth="yes"/>
      <point x="588" y="772"/>
      <point x="524" y="764"/>
    </contour>
    <contour>
      <point x="481" y="63" type="curve"/>
      <point x="481" y="691" type="line"/>
      <point x="509" y="697"/>
      <point x="552" y="701"/>
      <point x="586" y="701" type="curve" smooth="yes"/>
      <point x="772" y="701"/>
      <point x="844" y="589"/>
      <point x="870" y="427" type="curve" smooth="yes"/>
      <point x="899" y="242"/>
      <point x="849" y="40"/>
      <point x="636" y="40" type="curve" smooth="yes"/>
      <point x="559" y="40"/>
      <point x="510" y="53"/>
    </contour>
  </outline>
</glyph>
<glyph name="yerudieresis-cy.sc" format="1">
  <advance width="2111"/>
  <outline>
    <contour>
      <point x="1434" y="1320" type="curve"/>
      <point x="1531" y="1320"/>
      <point x="1598" y="1417"/>
      <point x="1598" y="1516" type="curve" smooth="yes"/>
      <point x="1598" y="1606"/>
      <point x="1547" y="1666"/>
      <point x="1452" y="1666" type="curve" smooth="yes"/>
      <point x="1353" y="1666"/>
      <point x="1284" y="1577"/>
      <point x="1284" y="1489" type="curve" smooth="yes"/>
      <point x="1284" y="1388"/>
      <point x="1337" y="1320"/>
    </contour>
    <contour>
      <point x="993" y="1320" type="curve"/>
      <point x="1091" y="1320"/>
      <point x="1161" y="1417"/>
      <point x="1161" y="1516" type="curve" smooth="yes"/>
      <point x="1161" y="1608"/>
      <point x="1108" y="1666"/>
      <point x="1011" y="1666" type="curve" smooth="yes"/>
      <point x="914" y="1666"/>
      <point x="846" y="1577"/>
      <point x="846" y="1489" type="curve" smooth="yes"/>
      <point x="846" y="1388"/>
      <point x="897" y="1320"/>
    </contour>
    <contour>
      <point x="480" y="754" type="curve"/>
      <point x="480" y="1225" type="line"/>
      <point x="620" y="1257" type="line"/>
      <point x="619" y="1292" type="line"/>
      <point x="-2" y="1292" type="line"/>
      <point x="-2" y="1257" type="line"/>
      <point x="124" y="1225" type="line"/>
      <point x="123" y="67" type="line"/>
      <point x="-4" y="35" type="line"/>
      <point x="-3" y="0" type="line"/>
      <point x="231" y="0" type="line" smooth="yes"/>
      <point x="367" y="0"/>
      <point x="518" y="-18"/>
      <point x="648" y="-18" type="curve" smooth="yes"/>
      <point x="998" y="-18"/>
      <point x="1290" y="93"/>
      <point x="1242" y="413" type="curve" smooth="yes"/>
      <point x="1201" y="685"/>
      <point x="955" y="772"/>
      <point x="659" y="772" type="curve" smooth="yes"/>
      <point x="588" y="772"/>
      <point x="524" y="764"/>
    </contour>
    <contour>
      <point x="481" y="63" type="curve"/>
      <point x="481" y="691" type="line"/>
      <point x="509" y="697"/>
      <point x="552" y="701"/>
      <point x="586" y="701" type="curve" smooth="yes"/>
      <point x="772" y="701"/>
      <point x="844" y="589"/>
      <point x="870" y="427" type="curve" smooth="yes"/>
      <point x="899" y="242"/>
      <point x="849" y="40"/>
      <point x="636" y="40" type="curve" smooth="yes"/>
      <point x="559" y="40"/>
      <point x="510" y="53"/>
    </contour>
  </outline>
</glyph>
<glyph name="yusbig-cy.sc" format="1">
  <advance width="2164"/>
  <outline>
    <contour>
      <point x="911" y="615" type="curve" smooth="yes"/>
      <point x="989" y="615" type="line"/>
      <point x="993" y="67" type="line"/>
      <point x="837" y="35" type="line"/>
      <point x="837" y="0" type="line"/>
      <point x="1489" y="0" type="line"/>
      <point x="1490" y="35" type="line"/>
      <point x="1313" y="67" type="line"/>
      <point x="1308" y="615" type="line"/>
      <point x="1373" y="615" type="line" smooth="yes"/>
      <point x="1500" y="615"/>
      <point x="1748" y="0"/>
      <point x="1870" y="0" type="curve" smooth="yes"/>
      <point x="2210" y="0" type="line"/>
      <point x="2211" y="35" type="line"/>
      <point x="2145" y="52" type="line" smooth="yes"/>
      <point x="2082" y="69"/>
      <point x="1976" y="242"/>
      <point x="1866" y="404" type="curve" smooth="yes"/>
      <point x="1718" y="634"/>
      <point x="1629" y="684"/>
      <point x="1485" y="684" type="curve" smooth="yes"/>
      <point x="1332" y="684" type="line"/>
      <point x="1821" y="1172" type="line"/>
      <point x="1812" y="1292" type="line"/>
      <point x="473" y="1292" type="line"/>
      <point x="461" y="1174" type="line"/>
      <point x="951" y="684" type="line"/>
      <point x="761" y="684" type="line" smooth="yes"/>
      <point x="649" y="684"/>
      <point x="584" y="613"/>
      <point x="512" y="511" type="curve" smooth="yes"/>
      <point x="412" y="379"/>
      <point x="318" y="203"/>
      <point x="198" y="56" type="curve" smooth="yes"/>
      <point x="137" y="35" type="line"/>
      <point x="136" y="0" type="line"/>
      <point x="496" y="0" type="line" smooth="yes"/>
      <point x="602" y="0"/>
      <point x="771" y="615"/>
    </contour>
    <contour>
      <point x="1648" y="1151" type="line"/>
      <point x="1135" y="614" type="line"/>
      <point x="635" y="1151" type="line"/>
    </contour>
  </outline>
</glyph>
<glyph name="zedescender-cy.sc" format="1">
  <advance width="1187"/>
  <outline>
    <contour>
      <point x="47" y="1241" type="curve"/>
      <point x="44" y="906" type="line"/>
      <point x="251" y="906" type="line"/>
      <point x="291" y="1075" type="line"/>
      <point x="328" y="1217"/>
      <point x="389" y="1254"/>
      <point x="490" y="1254" type="curve" smooth="yes"/>
      <point x="629" y="1254"/>
      <point x="690" y="1159"/>
      <point x="709" y="1039" type="curve" smooth="yes"/>
      <point x="745" y="794"/>
      <point x="618" y="717"/>
      <point x="454" y="725" type="curve" smooth="yes"/>
      <point x="306" y="733" type="line"/>
      <point x="306" y="600" type="line"/>
      <point x="485" y="613" type="line"/>
      <point x="650" y="605"/>
      <point x="723" y="510"/>
      <point x="744" y="369" type="curve" smooth="yes"/>
      <point x="775" y="171"/>
      <point x="722" y="40"/>
      <point x="498" y="40" type="curve" smooth="yes"/>
      <point x="382" y="40"/>
      <point x="316" y="67"/>
      <point x="276" y="96" type="curve"/>
      <point x="208" y="393" type="line"/>
      <point x="30" y="393" type="line"/>
      <point x="18" y="79" type="line"/>
      <point x="69" y="70"/>
      <point x="247" y="-18"/>
      <point x="491" y="-18" type="curve" smooth="yes"/>
      <point x="822" y="-18"/>
      <point x="1153" y="74"/>
      <point x="1109" y="378" type="curve" smooth="yes"/>
      <point x="1086" y="524"/>
      <point x="957" y="664"/>
      <point x="659" y="684" type="curve"/>
      <point x="833" y="704"/>
      <point x="1086" y="772"/>
      <point x="1049" y="1016" type="curve" smooth="yes"/>
      <point x="1015" y="1244"/>
      <point x="758" y="1310"/>
      <point x="510" y="1310" type="curve" smooth="yes"/>
      <point x="291" y="1310"/>
      <point x="155" y="1245"/>
    </contour>
  </outline>
</glyph>
<glyph name="zhe-cy.sc" format="1">
  <advance width="1980"/>
  <outline>
    <contour>
      <point x="957" y="1292" type="move" name="top"/>
    </contour>
    <contour>
      <point x="1369" y="683" type="curve"/>
      <point x="1808" y="1220" type="line"/>
      <point x="1971" y="1254" type="line"/>
      <point x="1971" y="1292" type="line"/>
      <point x="1474" y="1292" type="line"/>
      <point x="1474" y="1254" type="line"/>
      <point x="1672" y="1220" type="line"/>
      <point x="1275" y="691" type="line"/>
      <point x="1139" y="691" type="line"/>
      <point x="1136" y="1225" type="line"/>
      <point x="1290" y="1257" type="line"/>
      <point x="1290" y="1292" type="line"/>
      <point x="637" y="1292" type="line"/>
      <point x="636" y="1257" type="line"/>
      <point x="816" y="1225" type="line"/>
      <point x="819" y="691" type="line"/>
      <point x="684" y="691" type="line"/>
      <point x="247" y="1220" type="line"/>
      <point x="431" y="1257" type="line"/>
      <point x="432" y="1292" type="line"/>
      <point x="-51" y="1292" type="line"/>
      <point x="-53" y="1257" type="line"/>
      <point x="116" y="1220" type="line"/>
      <point x="593" y="685" type="line"/>
      <point x="288" y="685"/>
      <point x="195" y="242"/>
      <point x="29" y="57" type="curve" smooth="yes"/>
      <point x="-29" y="35" type="line"/>
      <point x="-29" y="0" type="line"/>
      <point x="327" y="0" type="line" smooth="yes"/>
      <point x="458" y="0"/>
      <point x="563" y="636"/>
      <point x="754" y="636" type="curve" smooth="yes"/>
      <point x="818" y="636" type="line"/>
      <point x="822" y="67" type="line"/>
      <point x="666" y="35" type="line"/>
      <point x="666" y="0" type="line"/>
      <point x="1318" y="0" type="line"/>
      <point x="1319" y="35" type="line"/>
      <point x="1142" y="67" type="line"/>
      <point x="1137" y="636" type="line"/>
      <point x="1188" y="636" type="line" smooth="yes"/>
      <point x="1367" y="636"/>
      <point x="1525" y="0"/>
      <point x="1642" y="0" type="curve" smooth="yes"/>
      <point x="2026" y="0" type="line"/>
      <point x="2027" y="35" type="line"/>
      <point x="1935" y="61" type="line"/>
      <point x="1809" y="129"/>
      <point x="1668" y="614"/>
    </contour>
  </outline>
</glyph>
<glyph name="zhebreve-cy.sc" format="1">
  <advance width="1980"/>
  <outline>
    <contour>
      <point x="741" y="1656" type="curve" smooth="yes"/>
      <point x="571" y="1656" type="line"/>
      <point x="568" y="1638"/>
      <point x="567" y="1620"/>
      <point x="567" y="1602" type="curve" smooth="yes"/>
      <point x="567" y="1419"/>
      <point x="713" y="1300"/>
      <point x="958" y="1300" type="curve" smooth="yes"/>
      <point x="1205" y="1300"/>
      <point x="1349" y="1419"/>
      <point x="1349" y="1602" type="curve" smooth="yes"/>
      <point x="1349" y="1620"/>
      <point x="1348" y="1638"/>
      <point x="1345" y="1656" type="curve"/>
      <point x="1175" y="1656" type="line" smooth="yes"/>
      <point x="1120" y="1656"/>
      <point x="1110" y="1608"/>
      <point x="1110" y="1531" type="curve" smooth="yes"/>
      <point x="1110" y="1419"/>
      <point x="1063" y="1350"/>
      <point x="959" y="1350" type="curve" smooth="yes"/>
      <point x="853" y="1350"/>
      <point x="806" y="1419"/>
      <point x="806" y="1531" type="curve" smooth="yes"/>
      <point x="806" y="1608"/>
      <point x="796" y="1656"/>
    </contour>
    <contour>
      <point x="1369" y="683" type="curve"/>
      <point x="1808" y="1220" type="line"/>
      <point x="1971" y="1254" type="line"/>
      <point x="1971" y="1292" type="line"/>
      <point x="1474" y="1292" type="line"/>
      <point x="1474" y="1254" type="line"/>
      <point x="1672" y="1220" type="line"/>
      <point x="1275" y="691" type="line"/>
      <point x="1139" y="691" type="line"/>
      <point x="1136" y="1225" type="line"/>
      <point x="1290" y="1257" type="line"/>
      <point x="1290" y="1292" type="line"/>
      <point x="637" y="1292" type="line"/>
      <point x="636" y="1257" type="line"/>
      <point x="816" y="1225" type="line"/>
      <point x="819" y="691" type="line"/>
      <point x="684" y="691" type="line"/>
      <point x="247" y="1220" type="line"/>
      <point x="431" y="1257" type="line"/>
      <point x="432" y="1292" type="line"/>
      <point x="-51" y="1292" type="line"/>
      <point x="-53" y="1257" type="line"/>
      <point x="116" y="1220" type="line"/>
      <point x="593" y="685" type="line"/>
      <point x="288" y="685"/>
      <point x="195" y="242"/>
      <point x="29" y="57" type="curve" smooth="yes"/>
      <point x="-29" y="35" type="line"/>
      <point x="-29" y="0" type="line"/>
      <point x="327" y="0" type="line" smooth="yes"/>
      <point x="458" y="0"/>
      <point x="563" y="636"/>
      <point x="754" y="636" type="curve" smooth="yes"/>
      <point x="818" y="636" type="line"/>
      <point x="822" y="67" type="line"/>
      <point x="666" y="35" type="line"/>
      <point x="666" y="0" type="line"/>
      <point x="1318" y="0" type="line"/>
      <point x="1319" y="35" type="line"/>
      <point x="1142" y="67" type="line"/>
      <point x="1137" y="636" type="line"/>
      <point x="1188" y="636" type="line" smooth="yes"/>
      <point x="1367" y="636"/>
      <point x="1525" y="0"/>
      <point x="1642" y="0" type="curve" smooth="yes"/>
      <point x="2026" y="0" type="line"/>
      <point x="2027" y="35" type="line"/>
      <point x="1935" y="61" type="line"/>
      <point x="1809" y="129"/>
      <point x="1668" y="614"/>
    </contour>
  </outline>
</glyph>
<glyph name="zhedescender-cy.sc" format="1">
  <advance width="2017"/>
  <outline>
    <contour>
      <point x="755" y="1444" type="move" name="top"/>
    </contour>
    <contour>
      <point x="1348" y="683" type="curve"/>
      <point x="1787" y="1220" type="line"/>
      <point x="1949" y="1254" type="line"/>
      <point x="1949" y="1292" type="line"/>
      <point x="1452" y="1292" type="line"/>
      <point x="1453" y="1254" type="line"/>
      <point x="1651" y="1220" type="line"/>
      <point x="1253" y="691" type="line"/>
      <point x="1117" y="691" type="line"/>
      <point x="1114" y="1225" type="line"/>
      <point x="1269" y="1257" type="line"/>
      <point x="1268" y="1292" type="line"/>
      <point x="615" y="1292" type="line"/>
      <point x="615" y="1257" type="line"/>
      <point x="794" y="1225" type="line"/>
      <point x="797" y="691" type="line"/>
      <point x="662" y="691" type="line"/>
      <point x="226" y="1220" type="line"/>
      <point x="411" y="1257" type="line"/>
      <point x="410" y="1292" type="line"/>
      <point x="-73" y="1292" type="line"/>
      <point x="-73" y="1257" type="line"/>
      <point x="95" y="1220" type="line"/>
      <point x="571" y="685" type="line"/>
      <point x="266" y="685"/>
      <point x="174" y="242"/>
      <point x="7" y="57" type="curve" smooth="yes"/>
      <point x="-51" y="35" type="line"/>
      <point x="-50" y="0" type="line"/>
      <point x="306" y="0" type="line" smooth="yes"/>
      <point x="437" y="0"/>
      <point x="542" y="636"/>
      <point x="733" y="636" type="curve" smooth="yes"/>
      <point x="797" y="636" type="line"/>
      <point x="801" y="67" type="line"/>
      <point x="644" y="35" type="line"/>
      <point x="645" y="0" type="line"/>
      <point x="1297" y="0" type="line"/>
      <point x="1297" y="35" type="line"/>
      <point x="1121" y="67" type="line"/>
      <point x="1116" y="636" type="line"/>
      <point x="1167" y="636" type="line" smooth="yes"/>
      <point x="1346" y="636"/>
      <point x="1504" y="0"/>
      <point x="1621" y="0" type="curve" smooth="yes"/>
      <point x="1783" y="0" type="line"/>
      <point x="1796" y="-81"/>
      <point x="1810" y="-270"/>
      <point x="1813" y="-370" type="curve"/>
      <point x="1960" y="-370" type="line"/>
      <point x="1990" y="-257"/>
      <point x="2032" y="-53"/>
      <point x="2040" y="69" type="curve"/>
      <point x="1898" y="69" type="line"/>
      <point x="1773" y="169"/>
      <point x="1632" y="617"/>
    </contour>
  </outline>
</glyph>
<glyph name="zhedieresis-cy.sc" format="1">
  <advance width="1980"/>
  <outline>
    <contour>
      <point x="1169" y="1320" type="curve"/>
      <point x="1266" y="1320"/>
      <point x="1334" y="1417"/>
      <point x="1334" y="1516" type="curve" smooth="yes"/>
      <point x="1334" y="1606"/>
      <point x="1282" y="1666"/>
      <point x="1187" y="1666" type="curve" smooth="yes"/>
      <point x="1088" y="1666"/>
      <point x="1019" y="1577"/>
      <point x="1019" y="1489" type="curve" smooth="yes"/>
      <point x="1019" y="1388"/>
      <point x="1072" y="1320"/>
    </contour>
    <contour>
      <point x="728" y="1320" type="curve"/>
      <point x="826" y="1320"/>
      <point x="896" y="1417"/>
      <point x="896" y="1516" type="curve" smooth="yes"/>
      <point x="896" y="1608"/>
      <point x="843" y="1666"/>
      <point x="746" y="1666" type="curve" smooth="yes"/>
      <point x="649" y="1666"/>
      <point x="581" y="1577"/>
      <point x="581" y="1489" type="curve" smooth="yes"/>
      <point x="581" y="1388"/>
      <point x="632" y="1320"/>
    </contour>
    <contour>
      <point x="1369" y="683" type="curve"/>
      <point x="1808" y="1220" type="line"/>
      <point x="1971" y="1254" type="line"/>
      <point x="1971" y="1292" type="line"/>
      <point x="1474" y="1292" type="line"/>
      <point x="1474" y="1254" type="line"/>
      <point x="1672" y="1220" type="line"/>
      <point x="1275" y="691" type="line"/>
      <point x="1139" y="691" type="line"/>
      <point x="1136" y="1225" type="line"/>
      <point x="1290" y="1257" type="line"/>
      <point x="1290" y="1292" type="line"/>
      <point x="637" y="1292" type="line"/>
      <point x="636" y="1257" type="line"/>
      <point x="816" y="1225" type="line"/>
      <point x="819" y="691" type="line"/>
      <point x="684" y="691" type="line"/>
      <point x="247" y="1220" type="line"/>
      <point x="431" y="1257" type="line"/>
      <point x="432" y="1292" type="line"/>
      <point x="-51" y="1292" type="line"/>
      <point x="-53" y="1257" type="line"/>
      <point x="116" y="1220" type="line"/>
      <point x="593" y="685" type="line"/>
      <point x="288" y="685"/>
      <point x="195" y="242"/>
      <point x="29" y="57" type="curve" smooth="yes"/>
      <point x="-29" y="35" type="line"/>
      <point x="-29" y="0" type="line"/>
      <point x="327" y="0" type="line" smooth="yes"/>
      <point x="458" y="0"/>
      <point x="563" y="636"/>
      <point x="754" y="636" type="curve" smooth="yes"/>
      <point x="818" y="636" type="line"/>
      <point x="822" y="67" type="line"/>
      <point x="666" y="35" type="line"/>
      <point x="666" y="0" type="line"/>
      <point x="1318" y="0" type="line"/>
      <point x="1319" y="35" type="line"/>
      <point x="1142" y="67" type="line"/>
      <point x="1137" y="636" type="line"/>
      <point x="1188" y="636" type="line" smooth="yes"/>
      <point x="1367" y="636"/>
      <point x="1525" y="0"/>
      <point x="1642" y="0" type="curve" smooth="yes"/>
      <point x="2026" y="0" type="line"/>
      <point x="2027" y="35" type="line"/>
      <point x="1935" y="61" type="line"/>
      <point x="1809" y="129"/>
      <point x="1668" y="614"/>
    </contour>
  </outline>
</glyph>
